<svg width="59" height="31" viewBox="0 0 59 31" fill="none" xmlns="http://www.w3.org/2000/svg">
<path d="M49.7601 0.298353H32.4403L29.4605 5.45896L26.4803 0.297852H9.16042L0.5 15.2976L9.16042 30.2973H26.4815L29.4609 25.1367L32.4407 30.2979H49.7618L58.4222 15.2968L49.7601 0.298353ZM55.381 14.2452H41.7086L34.8711 2.40473H48.5434L55.381 14.2452ZM10.3767 2.40373H24.0504L17.2138 14.2452H3.54018L10.3767 2.40373ZM3.53968 16.3506H17.2133L24.0499 28.1921H10.3762L3.53968 16.3506ZM25.8732 27.1383L19.0367 15.2978L25.8732 3.45736L28.245 7.56572L23.7806 15.2978L28.245 23.0309L25.8732 27.1383ZM29.4607 9.6706L32.7098 15.2978L29.4607 20.9251L26.212 15.2978L29.4607 9.6706ZM35.1422 15.2978L30.6774 7.56484L33.0491 3.45736L39.8857 15.2978L33.0491 27.1393L30.6774 23.031L35.1422 15.2978ZM48.5451 28.1918H34.8727L41.7098 16.3504H55.3821L48.5451 28.1918Z" fill="url(#paint0_linear_121_121)"/>
<defs>
<linearGradient id="paint0_linear_121_121" x1="29.4611" y1="0.297852" x2="29.4611" y2="30.2979" gradientUnits="userSpaceOnUse">
<stop stop-color="#E35387" stop-opacity="0.9"/>
<stop offset="1" stop-color="#B41068" stop-opacity="0.9"/>
</linearGradient>
</defs>
</svg>
