<svg width="28" height="31" viewBox="0 0 28 31" fill="none" xmlns="http://www.w3.org/2000/svg">
<path d="M19.8376 9.11326C19.5655 8.84311 19.1259 8.84311 18.8538 9.11326L12.8038 15.1633L10.0128 12.3722C9.74067 12.1021 9.30065 12.1021 9.02855 12.3722L6.66966 14.7102C6.39901 14.9823 6.39901 15.4218 6.66966 15.6939L12.3078 21.3321C12.5804 21.6027 13.0199 21.6032 13.292 21.3326L22.1823 12.4492C22.4529 12.1771 22.4529 11.7375 22.1823 11.4654L19.8376 9.11326ZM14.6526 18.004L12.9499 19.7136L12.8102 19.8533L8.1626 15.2056L9.51625 13.852L12.3073 16.643C12.4387 16.7749 12.6174 16.8494 12.8033 16.8494C12.9897 16.8494 13.1679 16.7749 13.2988 16.643L19.342 10.5999L20.703 11.9535L14.6526 18.004Z" fill="url(#paint0_linear_121_124)"/>
<path d="M27.0244 11.1636V5.18329C27.0239 4.8815 26.8297 4.61427 26.543 4.52033L13.9822 0.333142V0.333628C13.8396 0.285926 13.6853 0.285926 13.5427 0.333628L0.98186 4.52081V4.52033C0.694668 4.61427 0.50045 4.8815 0.50045 5.1833V11.1636C0.460048 17.0914 3.14308 22.7091 7.77849 26.4036L13.0681 30.1506C13.219 30.2504 13.3967 30.3015 13.5773 30.2976C13.7535 30.2996 13.9263 30.2485 14.0728 30.1506L19.5508 26.3753V26.3758C24.2077 22.6905 26.9535 17.101 27.0246 11.1632L27.0244 11.1636ZM18.6926 25.2597L13.5562 28.8047L8.62234 25.3156H8.62283C4.3301 21.8791 1.85295 16.662 1.90255 11.1635V5.68548L13.7654 1.75686L25.6283 5.68548V11.1635H25.6288C25.5567 16.6668 23.0091 21.8451 18.6924 25.2595L18.6926 25.2597Z" fill="url(#paint1_linear_121_124)"/>
<defs>
<linearGradient id="paint0_linear_121_124" x1="14.426" y1="8.91064" x2="14.426" y2="21.5353" gradientUnits="userSpaceOnUse">
<stop stop-color="#00DC8D"/>
<stop offset="1" stop-color="#18AE5D"/>
</linearGradient>
<linearGradient id="paint1_linear_121_124" x1="13.7623" y1="0.297852" x2="13.7623" y2="30.2979" gradientUnits="userSpaceOnUse">
<stop stop-color="#00DC8D"/>
<stop offset="1" stop-color="#18AE5D"/>
</linearGradient>
</defs>
</svg>
