<svg width="37" height="31" viewBox="0 0 37 31" fill="none" xmlns="http://www.w3.org/2000/svg">
<path d="M36.1397 15.0156C36.3329 14.0299 36.19 13.5513 35.9818 13.313C35.8185 13.127 35.5129 12.9471 35.0066 12.8099C34.5081 12.6749 33.8814 12.5991 33.1557 12.5696C31.7022 12.5107 29.9717 12.6408 28.2997 12.7675C27.0353 12.8635 25.7058 12.9645 24.444 12.9928L24.4365 12.993L24.4365 12.993C23.8604 12.9995 23.3104 12.715 22.9954 12.2132C22.6831 11.7165 22.6557 11.091 22.9226 10.5689C23.3248 9.78197 23.6227 8.37818 23.6807 6.81823C23.7383 5.26621 23.5537 3.67958 23.0852 2.53549L36.1397 15.0156ZM36.1397 15.0156L36.1193 15.1121L33.482 27.6227L33.482 27.6228C33.2756 28.6022 32.4389 29.2806 31.4378 29.2806L12.5965 29.2809C11.9261 29.2809 11.3962 29.0284 10.9737 28.5078L10.9732 28.5071C10.97 28.5032 10.9668 28.4993 10.9635 28.4954L10.9632 10.7673C14.7472 10.1326 19.029 7.28948 20.4368 1.0268C20.541 0.995044 20.7109 0.965197 20.9446 0.96453C21.2537 0.963647 21.5949 1.01439 21.8893 1.11243L21.8895 1.11247C22.2916 1.24625 22.7211 1.64697 23.0852 2.53531L36.1397 15.0156ZM7.63027 29.6312H1.16667L1.16667 9.80547H7.62998L7.63027 29.6312Z" stroke="url(#paint0_linear_121_129)" stroke-width="1.33333" stroke-linecap="round"/>
<defs>
<linearGradient id="paint0_linear_121_129" x1="18.6986" y1="0.297852" x2="18.6986" y2="30.2979" gradientUnits="userSpaceOnUse">
<stop stop-color="#00C2DC"/>
<stop offset="1" stop-color="#1854AE"/>
</linearGradient>
</defs>
</svg>
