<svg width="23" height="31" viewBox="0 0 23 31" fill="none" xmlns="http://www.w3.org/2000/svg">
<path d="M7.7875 16.6729L7.47773 17.3748L2.26598 29.1836C2.18319 29.3713 2.24167 29.5909 2.40662 29.7124L2.40686 29.7126C2.57152 29.834 2.79876 29.8249 2.95336 29.6904L22.3503 12.8152L22.3504 12.8151C22.4878 12.6956 22.5368 12.5031 22.4728 12.3318L7.7875 16.6729ZM7.7875 16.6729H7.02029M7.7875 16.6729H7.02029M7.02029 16.6729H1.43753C1.2612 16.6729 1.10218 16.5671 1.034 16.4047C0.96591 16.2421 1.002 16.0544 1.12548 15.9288C1.12549 15.9288 1.12549 15.9288 1.12549 15.9288L15.8701 0.928652L7.02029 16.6729ZM13.8509 12.0476L14.0117 11.4229L16.606 1.34457C16.606 1.34454 16.606 1.34452 16.606 1.3445C16.6553 1.15286 16.5698 0.951944 16.3974 0.854505C16.2252 0.757159 16.009 0.787492 15.8702 0.928567L13.8509 12.0476ZM13.8509 12.0476H14.4959M13.8509 12.0476H14.4959M14.4959 12.0476H22.063C22.2455 12.0476 22.4088 12.1608 22.4728 12.3317L14.4959 12.0476Z" stroke="url(#paint0_linear_121_132)" stroke-linecap="round"/>
<defs>
<linearGradient id="paint0_linear_121_132" x1="11.7503" y1="0.297852" x2="11.7503" y2="30.2978" gradientUnits="userSpaceOnUse">
<stop stop-color="#E3AA53" stop-opacity="0.9"/>
<stop offset="1" stop-color="#B4AD10" stop-opacity="0.9"/>
</linearGradient>
</defs>
</svg>
