<svg width="35" height="31" viewBox="0 0 35 31" fill="none" xmlns="http://www.w3.org/2000/svg">
<path d="M13.8372 27.7198C10.5122 26.2628 7.93453 23.5729 6.62687 20.1732C5.95434 18.4546 5.65554 16.6241 5.69299 14.8309L9.01799 15.6153L7.00065 7.0603L0.5 13.6356L4.31067 14.5323C4.19849 16.6244 4.53476 18.7164 5.31946 20.6966C6.77646 24.4326 9.61579 27.4213 13.2771 29.0276C15.2198 29.8868 17.3118 30.2978 19.3292 30.2978C23.3639 30.2978 27.3239 28.6914 30.2379 25.6652L29.2291 24.6938C25.2691 28.8032 19.0677 30.0362 13.8371 27.72L13.8372 27.7198Z" fill="url(#paint0_linear_121_174)"/>
<path d="M18.7316 0.297852C17.8349 0.33532 16.9011 0.447249 16.0416 0.671348L16.3032 1.82954C17.1251 1.64268 17.9471 1.53074 18.8062 1.49327L18.7316 0.297852Z" fill="url(#paint1_linear_121_174)"/>
<path d="M26.8009 2.27769C26.3527 2.01612 25.867 1.79202 25.3813 1.56795C25.0451 1.41855 24.6716 1.26915 24.2978 1.15698L23.8868 2.27772C24.2231 2.38989 24.5594 2.53929 24.8582 2.68868C25.3064 2.87555 25.7548 3.09965 26.1658 3.36121L26.8009 2.27769Z" fill="url(#paint2_linear_121_174)"/>
<path d="M22.9155 0.708817C22.0188 0.484718 21.1222 0.372547 20.2256 0.297852L20.1509 1.4935C20.9728 1.53097 21.832 1.68037 22.6167 1.867L22.9155 0.708817Z" fill="url(#paint3_linear_121_174)"/>
<path d="M30.4246 23.4605L31.3584 24.1702C31.8816 23.423 32.3672 22.6385 32.778 21.8541L31.7322 21.2937C31.3587 22.041 30.9102 22.7882 30.4246 23.4604V23.4605Z" fill="url(#paint4_linear_121_174)"/>
<path d="M14.3605 1.15704C13.576 1.41861 12.8288 1.75488 12.119 2.16583L12.6794 3.21184C13.3145 2.83834 14.0242 2.53931 14.7342 2.27796C14.8089 2.24049 14.8836 2.20326 14.9958 2.20326L14.6223 1.08252C14.5099 1.08228 14.4352 1.11952 14.3605 1.15699L14.3605 1.15704Z" fill="url(#paint5_linear_121_174)"/>
<path d="M32.8529 12.4396L34.011 12.2155C33.8242 11.3189 33.5628 10.4597 33.2266 9.60034L32.1058 10.0113C32.4046 10.796 32.6662 11.618 32.8529 12.4396V12.4396Z" fill="url(#paint6_linear_121_174)"/>
<path d="M33.0399 13.7849C33.0774 14.2706 33.1146 14.7563 33.1146 15.2419C33.1146 15.5782 33.1146 15.9517 33.0771 16.2879L34.2353 16.3626C34.2728 15.9891 34.2728 15.6154 34.2728 15.2419C34.2728 14.7188 34.2353 14.1584 34.1981 13.6355L33.0399 13.7849Z" fill="url(#paint7_linear_121_174)"/>
<path d="M30.1635 6.68644C30.6866 7.35897 31.1348 8.06877 31.5458 8.77851L32.5918 8.21814C32.1808 7.39621 31.6579 6.64895 31.0973 5.93921L30.1635 6.68644Z" fill="url(#paint8_linear_121_174)"/>
<path d="M32.2555 20.0609L33.3762 20.4719C33.7125 19.6127 33.9366 18.7161 34.086 17.8567L32.9278 17.6326C32.7784 18.4545 32.5543 19.2764 32.2555 20.0609V20.0609Z" fill="url(#paint9_linear_121_174)"/>
<path d="M30.1258 4.85528C29.4908 4.18275 28.781 3.58514 28.071 3.06201L27.3984 4.03335C28.071 4.51901 28.706 5.07935 29.3036 5.67721L30.1258 4.85528Z" fill="url(#paint10_linear_121_174)"/>
<path d="M25.0823 5.82742C24.746 5.64055 24.2978 5.71525 24.111 6.05152L23.7375 6.68659C23.5506 7.02286 23.6253 7.47106 23.9616 7.65792C24.0737 7.73263 24.1857 7.7701 24.3351 7.7701C24.5592 7.7701 24.8207 7.65792 24.9329 7.43383L25.3064 6.79876C25.5307 6.46249 25.4186 6.0515 25.0823 5.82742Z" fill="url(#paint11_linear_121_174)"/>
<path d="M19.5905 4.25781C19.1795 4.25781 18.8807 4.55661 18.8807 4.96755V5.71481C18.8807 6.08831 19.1795 6.42456 19.5905 6.42456C19.964 6.42456 20.3002 6.12575 20.3002 5.71481V4.96755C20.3005 4.55659 19.9642 4.25781 19.5905 4.25781Z" fill="url(#paint12_linear_121_174)"/>
<path d="M14.0242 5.60316C13.6879 5.79003 13.576 6.23823 13.7626 6.5745L14.1361 7.20957C14.2483 7.43367 14.5096 7.58306 14.7712 7.58306C14.8834 7.58306 14.9953 7.54559 15.1075 7.50836C15.4437 7.32149 15.5557 6.87329 15.369 6.53703L14.9955 5.90196C14.8087 5.56569 14.3605 5.41629 14.0242 5.60316L14.0242 5.60316Z" fill="url(#paint13_linear_121_174)"/>
<path d="M10.6245 19.3511L9.95198 19.7246C9.61571 19.9115 9.46632 20.3597 9.69042 20.696C9.80259 20.9201 10.0639 21.0695 10.3255 21.0695C10.4377 21.0695 10.5496 21.032 10.6618 20.9948L11.3343 20.6213C11.6706 20.4344 11.82 19.9862 11.5959 19.6499C11.409 19.2764 10.9608 19.127 10.6245 19.3511L10.6245 19.3511Z" fill="url(#paint14_linear_121_174)"/>
<path d="M13.6508 24.768C13.763 24.8427 13.8749 24.8802 14.0243 24.8802C14.2484 24.8802 14.51 24.768 14.6222 24.5439L14.9957 23.9089C15.1825 23.5726 15.1078 23.1244 14.7716 22.9375C14.4353 22.7507 13.9871 22.8254 13.8002 23.1616L13.4265 23.7967C13.2024 24.133 13.3146 24.5812 13.6508 24.768Z" fill="url(#paint15_linear_121_174)"/>
<path d="M19.1796 24.2075C18.8061 24.2075 18.4698 24.5063 18.4698 24.9173V25.6645C18.4698 26.038 18.7686 26.3743 19.1796 26.3743C19.5531 26.3743 19.8893 26.0755 19.8893 25.6645V24.9173C19.8896 24.5438 19.5905 24.2075 19.1796 24.2075C19.2171 24.2075 19.1796 24.2075 19.1796 24.2075Z" fill="url(#paint16_linear_121_174)"/>
<path d="M23.7752 24.7314C23.8873 24.9554 24.1487 25.1048 24.4102 25.1048C24.5224 25.1048 24.6343 25.0674 24.7465 25.0301C25.0828 24.8433 25.1947 24.3951 25.0081 24.0588L24.6346 23.4237C24.4477 23.0875 23.9995 22.9755 23.6632 23.1622C23.327 23.349 23.215 23.7972 23.4017 24.1335L23.7752 24.7314Z" fill="url(#paint17_linear_121_174)"/>
<path d="M26.9878 19.9113C26.801 20.2475 26.8757 20.6957 27.2119 20.8826L27.847 21.2561C27.9592 21.3308 28.0711 21.3683 28.2205 21.3683C28.4446 21.3683 28.7062 21.2561 28.8183 21.032C29.0052 20.6957 28.9305 20.2475 28.5942 20.0607L27.9592 19.6872C27.6229 19.4631 27.2119 19.575 26.9878 19.9113Z" fill="url(#paint18_linear_121_174)"/>
<path d="M29.7149 16.2132C30.1259 16.2132 30.4247 15.9144 30.4247 15.5034C30.4247 15.1299 30.1259 14.7937 29.7149 14.7937H28.9677C28.5942 14.7937 28.2579 15.0925 28.2579 15.5034C28.2579 15.8769 28.5567 16.2132 28.9677 16.2132H29.7149Z" fill="url(#paint19_linear_121_174)"/>
<path d="M27.1748 11.0198C27.287 11.2439 27.5483 11.3933 27.8099 11.3933C27.9221 11.3933 28.034 11.3559 28.1462 11.3186L28.7813 10.9451C29.1175 10.7583 29.2295 10.3101 29.0428 9.97379C28.856 9.63752 28.4078 9.52559 28.0715 9.71222L27.4364 10.0857C27.1001 10.2354 26.988 10.6463 27.1749 11.0198L27.1748 11.0198Z" fill="url(#paint20_linear_121_174)"/>
<path d="M23.9616 9.37598L19.5534 14.3073L15.0702 10.3473L13.501 12.1031L17.9467 16.0631C18.0214 16.2872 18.1335 16.5113 18.3576 16.6982C18.6192 16.9223 18.9555 17.0345 19.2915 17.0345C19.665 17.0345 20.0388 16.8851 20.3375 16.5863C20.5991 16.3247 20.711 15.9512 20.6738 15.5775C20.6738 15.4653 20.6363 15.3534 20.5991 15.2412L25.0075 10.31L23.9616 9.37598ZM19.2543 15.6896L19.2918 15.6522C19.2918 15.6524 19.2918 15.6524 19.2543 15.6896C19.2918 15.6524 19.2918 15.6896 19.2543 15.6896C19.2918 15.6896 19.2543 15.6896 19.2543 15.6896Z" fill="url(#paint21_linear_121_174)"/>
<defs>
<linearGradient id="paint0_linear_121_174" x1="15.3689" y1="7.0603" x2="15.3689" y2="30.2978" gradientUnits="userSpaceOnUse">
<stop stop-color="#00DC8D"/>
<stop offset="1" stop-color="#18AE5D"/>
</linearGradient>
<linearGradient id="paint1_linear_121_174" x1="17.4239" y1="0.297852" x2="17.4239" y2="1.82954" gradientUnits="userSpaceOnUse">
<stop stop-color="#00DC8D"/>
<stop offset="1" stop-color="#18AE5D"/>
</linearGradient>
<linearGradient id="paint2_linear_121_174" x1="25.3439" y1="1.15698" x2="25.3439" y2="3.36121" gradientUnits="userSpaceOnUse">
<stop stop-color="#00DC8D"/>
<stop offset="1" stop-color="#18AE5D"/>
</linearGradient>
<linearGradient id="paint3_linear_121_174" x1="21.5332" y1="0.297852" x2="21.5332" y2="1.867" gradientUnits="userSpaceOnUse">
<stop stop-color="#00DC8D"/>
<stop offset="1" stop-color="#18AE5D"/>
</linearGradient>
<linearGradient id="paint4_linear_121_174" x1="31.6013" y1="21.2937" x2="31.6013" y2="24.1702" gradientUnits="userSpaceOnUse">
<stop stop-color="#00DC8D"/>
<stop offset="1" stop-color="#18AE5D"/>
</linearGradient>
<linearGradient id="paint5_linear_121_174" x1="13.5574" y1="1.08252" x2="13.5574" y2="3.21184" gradientUnits="userSpaceOnUse">
<stop stop-color="#00DC8D"/>
<stop offset="1" stop-color="#18AE5D"/>
</linearGradient>
<linearGradient id="paint6_linear_121_174" x1="33.0584" y1="9.60034" x2="33.0584" y2="12.4396" gradientUnits="userSpaceOnUse">
<stop stop-color="#00DC8D"/>
<stop offset="1" stop-color="#18AE5D"/>
</linearGradient>
<linearGradient id="paint7_linear_121_174" x1="33.6564" y1="13.6355" x2="33.6564" y2="16.3626" gradientUnits="userSpaceOnUse">
<stop stop-color="#00DC8D"/>
<stop offset="1" stop-color="#18AE5D"/>
</linearGradient>
<linearGradient id="paint8_linear_121_174" x1="31.3776" y1="5.93921" x2="31.3776" y2="8.77851" gradientUnits="userSpaceOnUse">
<stop stop-color="#00DC8D"/>
<stop offset="1" stop-color="#18AE5D"/>
</linearGradient>
<linearGradient id="paint9_linear_121_174" x1="33.1707" y1="17.6326" x2="33.1707" y2="20.4719" gradientUnits="userSpaceOnUse">
<stop stop-color="#00DC8D"/>
<stop offset="1" stop-color="#18AE5D"/>
</linearGradient>
<linearGradient id="paint10_linear_121_174" x1="28.7621" y1="3.06201" x2="28.7621" y2="5.67721" gradientUnits="userSpaceOnUse">
<stop stop-color="#00DC8D"/>
<stop offset="1" stop-color="#18AE5D"/>
</linearGradient>
<linearGradient id="paint11_linear_121_174" x1="24.5302" y1="5.72729" x2="24.5302" y2="7.7701" gradientUnits="userSpaceOnUse">
<stop stop-color="#00DC8D"/>
<stop offset="1" stop-color="#18AE5D"/>
</linearGradient>
<linearGradient id="paint12_linear_121_174" x1="19.5905" y1="4.25781" x2="19.5905" y2="6.42456" gradientUnits="userSpaceOnUse">
<stop stop-color="#00DC8D"/>
<stop offset="1" stop-color="#18AE5D"/>
</linearGradient>
<linearGradient id="paint13_linear_121_174" x1="14.5658" y1="5.52173" x2="14.5658" y2="7.58306" gradientUnits="userSpaceOnUse">
<stop stop-color="#00DC8D"/>
<stop offset="1" stop-color="#18AE5D"/>
</linearGradient>
<linearGradient id="paint14_linear_121_174" x1="10.6431" y1="19.2458" x2="10.6431" y2="21.0695" gradientUnits="userSpaceOnUse">
<stop stop-color="#00DC8D"/>
<stop offset="1" stop-color="#18AE5D"/>
</linearGradient>
<linearGradient id="paint15_linear_121_174" x1="14.2029" y1="22.8374" x2="14.2029" y2="24.8802" gradientUnits="userSpaceOnUse">
<stop stop-color="#00DC8D"/>
<stop offset="1" stop-color="#18AE5D"/>
</linearGradient>
<linearGradient id="paint16_linear_121_174" x1="19.1796" y1="24.2075" x2="19.1796" y2="26.3743" gradientUnits="userSpaceOnUse">
<stop stop-color="#00DC8D"/>
<stop offset="1" stop-color="#18AE5D"/>
</linearGradient>
<linearGradient id="paint17_linear_121_174" x1="24.2049" y1="23.0723" x2="24.2049" y2="25.1048" gradientUnits="userSpaceOnUse">
<stop stop-color="#00DC8D"/>
<stop offset="1" stop-color="#18AE5D"/>
</linearGradient>
<linearGradient id="paint18_linear_121_174" x1="27.9031" y1="19.5706" x2="27.9031" y2="21.3683" gradientUnits="userSpaceOnUse">
<stop stop-color="#00DC8D"/>
<stop offset="1" stop-color="#18AE5D"/>
</linearGradient>
<linearGradient id="paint19_linear_121_174" x1="29.3413" y1="14.7937" x2="29.3413" y2="16.2132" gradientUnits="userSpaceOnUse">
<stop stop-color="#00DC8D"/>
<stop offset="1" stop-color="#18AE5D"/>
</linearGradient>
<linearGradient id="paint20_linear_121_174" x1="28.1088" y1="9.62231" x2="28.1088" y2="11.3933" gradientUnits="userSpaceOnUse">
<stop stop-color="#00DC8D"/>
<stop offset="1" stop-color="#18AE5D"/>
</linearGradient>
<linearGradient id="paint21_linear_121_174" x1="19.2543" y1="9.37598" x2="19.2543" y2="17.0345" gradientUnits="userSpaceOnUse">
<stop stop-color="#00DC8D"/>
<stop offset="1" stop-color="#18AE5D"/>
</linearGradient>
</defs>
</svg>
