<svg width="17" height="17" viewBox="0 0 17 17" fill="none" xmlns="http://www.w3.org/2000/svg">
<path d="M8.5 2.0377C10.636 2.0377 10.8893 2.0457 11.7333 2.08437C13.9013 2.18304 14.914 3.2117 15.0127 5.3637C15.0513 6.20704 15.0587 6.46037 15.0587 8.59637C15.0587 10.733 15.0507 10.9857 15.0127 11.829C14.9133 13.979 13.9033 15.0097 11.7333 15.1084C10.8893 15.147 10.6373 15.155 8.5 15.155C6.364 15.155 6.11067 15.147 5.26733 15.1084C3.094 15.009 2.08667 13.9757 1.988 11.8284C1.94933 10.985 1.94133 10.7324 1.94133 8.5957C1.94133 6.4597 1.95 6.20704 1.988 5.36304C2.08733 3.2117 3.09733 2.18237 5.26733 2.0837C6.11133 2.0457 6.364 2.0377 8.5 2.0377ZM8.5 0.595703C6.32733 0.595703 6.05533 0.605036 5.202 0.643703C2.29667 0.777036 0.682 2.38904 0.548667 5.29704C0.509333 6.15104 0.5 6.42304 0.5 8.5957C0.5 10.7684 0.509333 11.041 0.548 11.8944C0.681333 14.7997 2.29333 16.4144 5.20133 16.5477C6.05533 16.5864 6.32733 16.5957 8.5 16.5957C10.6727 16.5957 10.9453 16.5864 11.7987 16.5477C14.7013 16.4144 16.32 14.8024 16.4513 11.8944C16.4907 11.041 16.5 10.7684 16.5 8.5957C16.5 6.42304 16.4907 6.15104 16.452 5.2977C16.3213 2.39504 14.7073 0.777703 11.7993 0.64437C10.9453 0.605036 10.6727 0.595703 8.5 0.595703V0.595703ZM8.5 4.4877C6.23133 4.4877 4.392 6.32704 4.392 8.5957C4.392 10.8644 6.23133 12.7044 8.5 12.7044C10.7687 12.7044 12.608 10.865 12.608 8.5957C12.608 6.32704 10.7687 4.4877 8.5 4.4877ZM8.5 11.2624C7.02733 11.2624 5.83333 10.069 5.83333 8.5957C5.83333 7.12304 7.02733 5.92904 8.5 5.92904C9.97267 5.92904 11.1667 7.12304 11.1667 8.5957C11.1667 10.069 9.97267 11.2624 8.5 11.2624ZM12.7707 3.3657C12.24 3.3657 11.81 3.7957 11.81 4.3257C11.81 4.8557 12.24 5.2857 12.7707 5.2857C13.3007 5.2857 13.73 4.8557 13.73 4.3257C13.73 3.7957 13.3007 3.3657 12.7707 3.3657Z" fill="black" fill-opacity="0.65"/>
</svg>
