<svg width="17" height="16" viewBox="0 0 17 16" fill="none" xmlns="http://www.w3.org/2000/svg">
<path d="M3.82 1.92936C3.82 2.85003 3.08 3.59603 2.16667 3.59603C1.25333 3.59603 0.513333 2.85003 0.513333 1.92936C0.513333 1.00936 1.25333 0.262695 2.16667 0.262695C3.08 0.262695 3.82 1.00936 3.82 1.92936ZM3.83333 4.92936H0.5V15.596H3.83333V4.92936ZM9.15467 4.92936H5.84267V15.596H9.15533V9.99669C9.15533 6.88336 13.1747 6.6287 13.1747 9.99669V15.596H16.5V8.84203C16.5 3.5887 10.552 3.78003 9.15467 6.36603V4.92936Z" fill="url(#paint0_linear_121_214)" fill-opacity="0.75"/>
<defs>
<linearGradient id="paint0_linear_121_214" x1="11" y1="0.297852" x2="11" y2="16.2979" gradientUnits="userSpaceOnUse">
<stop stop-color="#00C2DC"/>
<stop offset="1" stop-color="#1854AE"/>
</linearGradient>
</defs>
</svg>
