<svg width="15" height="17" viewBox="0 0 15 17" fill="none" xmlns="http://www.w3.org/2000/svg">
<path d="M13.5933 16.0672C8.68193 18.3119 1.05859 3.49386 5.85926 0.99052L7.26393 0.297852L9.59194 4.84253L8.20327 5.52653C6.74393 6.3092 9.78327 12.2465 11.2759 11.5225C11.3366 11.4952 12.6473 10.8512 12.6519 10.8485L14.9999 15.3785C14.9946 15.3812 13.6739 16.0305 13.5933 16.0672ZM7.30127 14.5579C6.31726 15.2725 4.96393 15.3379 4.55193 14.6285C4.23859 14.0892 4.34459 13.4765 4.46726 12.7665C4.60126 11.9925 4.75326 11.1145 4.27059 10.2932C3.45793 8.9092 1.67259 8.9712 0.333252 9.84654L0.970587 10.8219C1.52325 10.4605 2.15992 10.3052 2.63259 10.4159C3.73459 10.6745 3.39992 12.0999 3.31926 12.5685C3.17792 13.3839 3.01926 14.3085 3.54393 15.2139C4.37259 16.6426 6.5966 16.5979 8.10127 15.4245C7.8266 15.1532 7.5606 14.8625 7.30127 14.5579Z" fill="url(#paint0_linear_121_217)"/>
<defs>
<linearGradient id="paint0_linear_121_217" x1="7.6666" y1="0.297852" x2="7.6666" y2="16.2979" gradientUnits="userSpaceOnUse">
<stop stop-color="#00DC8D"/>
<stop offset="1" stop-color="#18AE5D"/>
</linearGradient>
</defs>
</svg>
