<svg width="19" height="17" viewBox="0 0 19 17" fill="none" xmlns="http://www.w3.org/2000/svg">
<path fill-rule="evenodd" clip-rule="evenodd" d="M6.28405 8.268H5.94449C4.00692 8.268 2.44887 6.70995 2.44887 4.77238V3.79357C2.44887 1.87591 4.00692 0.297958 5.94449 0.297958H6.28405C8.20171 0.297958 9.77966 1.856 9.77966 3.79357V4.77238C9.77966 6.69005 8.22162 8.268 6.28405 8.268ZM14.3339 7.72869H14.0943C12.6362 7.72869 11.4575 6.53012 11.4376 5.09207V4.55271C11.4376 3.07453 12.6361 1.89604 14.0943 1.89604H14.3339C15.792 1.89604 16.9906 3.09447 16.9906 4.53266V5.07202C16.9906 6.55021 15.7921 7.72869 14.3339 7.72869ZM7.42265 9.40658H4.88579C2.48883 9.40658 0.53125 11.3641 0.53125 13.7611V14.0408C0.53125 15.2792 1.53 16.298 2.78846 16.298H9.53999C10.7784 16.298 11.7972 15.2992 11.7972 14.0408V13.7611C11.777 11.3642 9.8195 9.40658 7.42268 9.40658H7.42265ZM13.8147 8.64753H14.4938L14.4936 8.64753C16.691 8.64753 18.4688 10.4254 18.4689 12.6225V12.7824C18.4689 13.5214 17.8697 14.1207 17.1306 14.1207H13.3753C13.1757 14.1207 13.0358 13.9609 13.0358 13.7811V13.7411C13.0358 12.283 12.4765 10.9646 11.5576 9.96587C11.3777 9.76609 11.4177 9.44659 11.6374 9.3067C12.2766 8.88718 13.0157 8.64753 13.8147 8.64753Z" fill="black" fill-opacity="0.65"/>
</svg>
