<svg width="19" height="17" viewBox="0 0 19 17" fill="none" xmlns="http://www.w3.org/2000/svg">
<path fill-rule="evenodd" clip-rule="evenodd" d="M8.02845 0.297958C11.8466 0.297958 15.3012 2.84341 15.3012 6.37214C15.3012 10.0449 11.2219 13.4769 5.62336 12.1118C4.60809 12.735 2.36518 13.3656 0.788454 13.65C1.37755 12.4914 2.02991 10.8972 1.99573 9.78669C0.434072 7.917 0.446601 4.89234 1.9736 2.99424C3.30781 1.33579 5.58545 0.297958 8.02845 0.297958ZM18.1899 16.298C17.8045 15.5387 17.3775 14.4958 17.3986 13.7678C18.675 12.2427 18.5208 9.81505 16.4183 8.42378C16.3005 8.77869 16.155 9.12269 15.9812 9.4536C17.2008 10.3707 17.6226 11.7991 16.3186 13.3554C16.3174 13.4025 16.3161 13.4471 16.3148 13.4897C16.3016 13.9384 16.2948 14.1698 16.419 14.7118C15.8439 14.5145 15.7295 14.4435 15.3629 14.2162C15.3159 14.187 15.2648 14.1554 15.2081 14.1205C13.6612 14.498 12.1063 14.6274 10.7797 13.4987C10.371 13.6143 9.94773 13.7009 9.51427 13.7634C10.6146 15.1285 12.6401 15.871 15.0248 15.2907C15.6895 15.6987 17.1579 16.1103 18.1899 16.298ZM9.09673 4.66201C8.86495 4.42719 8.5192 4.29796 8.12426 4.29796C7.29323 4.29796 6.75572 4.88883 6.75572 5.80373H7.52233C7.52233 5.23726 7.83836 5.03636 8.10863 5.03636C8.35032 5.03636 8.60687 5.19685 8.6286 5.50372C8.65224 5.8266 8.47993 5.99052 8.26188 6.1979C7.72361 6.70986 7.7137 6.95765 7.71599 7.51993H8.48031C8.47536 7.26681 8.49175 7.06134 8.83674 6.68966C9.09482 6.41138 9.4158 6.06524 9.42228 5.53765C9.42647 5.18541 9.31401 4.88235 9.09673 4.66201ZM8.5657 8.47334C8.5657 8.73637 8.35261 8.94985 8.08919 8.94985C7.82654 8.94985 7.61268 8.73637 7.61268 8.47334C7.61268 8.2103 7.82654 7.99682 8.08919 7.99682C8.35261 7.99682 8.5657 8.2103 8.5657 8.47334Z" fill="white" fill-opacity="0.65"/>
</svg>
