<svg width="19" height="19" viewBox="0 0 19 19" fill="none" xmlns="http://www.w3.org/2000/svg">
<path d="M8.15101 7.82099C8.52513 7.82099 8.84299 7.6899 9.10457 7.42771C9.36676 7.16613 9.49785 6.84827 9.49785 6.47415C9.49785 6.10003 9.36676 5.78218 9.10457 5.52059C8.84299 5.25841 8.52513 5.12731 8.15101 5.12731C7.77689 5.12731 7.45903 5.25841 7.19745 5.52059C6.93526 5.78218 6.80417 6.10003 6.80417 6.47415C6.80417 6.84827 6.93526 7.16613 7.19745 7.42771C7.45903 7.6899 7.77689 7.82099 8.15101 7.82099ZM6.35522 12.3105C6.72935 12.3105 7.0472 12.1794 7.30879 11.9172C7.57097 11.6556 7.70206 11.3377 7.70206 10.9636C7.70206 10.5895 7.57097 10.2716 7.30879 10.0101C7.0472 9.74787 6.72935 9.61678 6.35522 9.61678C5.9811 9.61678 5.66325 9.74787 5.40166 10.0101C5.13948 10.2716 5.00838 10.5895 5.00838 10.9636C5.00838 11.3377 5.13948 11.6556 5.40166 11.9172C5.66325 12.1794 5.9811 12.3105 6.35522 12.3105ZM12.1915 13.2083C12.4459 13.2083 12.6593 13.1221 12.8317 12.9498C13.0035 12.778 13.0894 12.5649 13.0894 12.3105C13.0894 12.0561 13.0035 11.8427 12.8317 11.6703C12.6593 11.4985 12.4459 11.4126 12.1915 11.4126C11.9371 11.4126 11.724 11.4985 11.5522 11.6703C11.3798 11.8427 11.2936 12.0561 11.2936 12.3105C11.2936 12.5649 11.3798 12.778 11.5522 12.9498C11.724 13.1221 11.9371 13.2083 12.1915 13.2083ZM9.49785 18.5957C8.25576 18.5957 7.0885 18.3599 5.99607 17.8882C4.90363 17.4171 3.95336 16.7775 3.14526 15.9694C2.33715 15.1613 1.69755 14.211 1.22646 13.1186C0.754767 12.0261 0.518921 10.8589 0.518921 9.61678C0.518921 8.35973 0.788289 7.13261 1.32702 5.93542C1.86576 4.73823 2.61789 3.70565 3.58343 2.83769C4.54836 1.96972 5.69318 1.33372 7.01787 0.929664C8.34196 0.525613 9.78966 0.4882 11.361 0.817428C11.2263 1.49085 11.2712 2.12296 11.4957 2.71378C11.7201 3.30519 12.0568 3.80292 12.5058 4.20697C12.9547 4.61102 13.486 4.88787 14.0995 5.03752C14.7131 5.18717 15.3566 5.14976 16.03 4.92529C15.5661 5.95786 15.6484 6.84079 16.2769 7.57407C16.9055 8.30735 17.6238 8.68895 18.4319 8.71888C18.5666 10.0508 18.4244 11.3153 18.0054 12.5125C17.5864 13.7097 16.9692 14.7572 16.1539 15.6551C15.338 16.553 14.3578 17.2677 13.2133 17.7993C12.0682 18.3302 10.8297 18.5957 9.49785 18.5957ZM9.49785 16.7999C11.3236 16.7999 12.9437 16.1714 14.3581 14.9143C15.772 13.6573 16.5463 12.0561 16.681 10.1106C15.9327 9.78139 15.3455 9.33244 14.9193 8.76378C14.4925 8.19511 14.2043 7.55911 14.0547 6.85576C12.9024 6.69114 11.9147 6.1973 11.0916 5.37423C10.2685 4.55117 9.75973 3.56348 9.56519 2.41119C8.368 2.38126 7.31657 2.59825 6.41089 3.06216C5.50582 3.52607 4.75039 4.12077 4.14461 4.84627C3.53824 5.57237 3.08181 6.36192 2.77533 7.21491C2.46825 8.06791 2.31471 8.86853 2.31471 9.61678C2.31471 11.6071 3.01446 13.302 4.41398 14.7015C5.8129 16.1005 7.50752 16.7999 9.49785 16.7999Z" fill="black" fill-opacity="0.75"/>
</svg>
