<svg width="17" height="17" viewBox="0 0 17 17" fill="none" xmlns="http://www.w3.org/2000/svg">
<path d="M8.30005 16.5957C7.19338 16.5957 6.15338 16.3856 5.18005 15.9653C4.20672 15.5456 3.36005 14.9757 2.64005 14.2557C1.92005 13.5357 1.35018 12.689 0.930449 11.7157C0.510182 10.7424 0.300049 9.70237 0.300049 8.5957C0.300049 7.48904 0.510182 6.44904 0.930449 5.4757C1.35018 4.50237 1.92005 3.6557 2.64005 2.9357C3.36005 2.2157 4.20672 1.64557 5.18005 1.2253C6.15338 0.80557 7.19338 0.595703 8.30005 0.595703C10.2467 0.595703 11.9499 1.20557 13.4096 2.4253C14.8699 3.64557 15.78 5.1757 16.14 7.0157H14.5C14.2467 6.04237 13.7902 5.17224 13.1304 4.4053C12.4702 3.6389 11.66 3.06237 10.7 2.6757V2.9957C10.7 3.4357 10.5435 3.81224 10.2304 4.1253C9.91685 4.4389 9.54005 4.5957 9.10005 4.5957H7.50005V6.1957C7.50005 6.42237 7.42352 6.61224 7.27045 6.7653C7.11685 6.9189 6.92671 6.9957 6.70005 6.9957H5.10005V8.5957H6.70005V10.9957H5.90005L2.06005 7.1557C2.02005 7.3957 1.98325 7.6357 1.94965 7.8757C1.91658 8.1157 1.90005 8.3557 1.90005 8.5957C1.90005 10.3424 2.51338 11.8424 3.74005 13.0957C4.96672 14.349 6.48672 14.9824 8.30005 14.9957V16.5957ZM15.58 16.1957L13.02 13.6357C12.74 13.7957 12.44 13.929 12.12 14.0357C11.8 14.1424 11.46 14.1957 11.1 14.1957C10.1 14.1957 9.24992 13.8458 8.54965 13.1461C7.84992 12.4458 7.50005 11.5957 7.50005 10.5957C7.50005 9.5957 7.84992 8.74557 8.54965 8.0453C9.24992 7.34557 10.1 6.9957 11.1 6.9957C12.1 6.9957 12.9502 7.34557 13.6504 8.0453C14.3502 8.74557 14.7 9.5957 14.7 10.5957C14.7 10.9557 14.6467 11.2957 14.54 11.6157C14.4334 11.9357 14.3 12.2357 14.14 12.5157L16.7 15.0757L15.58 16.1957ZM11.1 12.5957C11.66 12.5957 12.1334 12.4024 12.52 12.0157C12.9067 11.629 13.1 11.1557 13.1 10.5957C13.1 10.0357 12.9067 9.56237 12.52 9.1757C12.1334 8.78904 11.66 8.5957 11.1 8.5957C10.54 8.5957 10.0667 8.78904 9.68005 9.1757C9.29338 9.56237 9.10005 10.0357 9.10005 10.5957C9.10005 11.1557 9.29338 11.629 9.68005 12.0157C10.0667 12.4024 10.54 12.5957 11.1 12.5957Z" fill="black" fill-opacity="0.75"/>
</svg>
