<svg width="313" height="33" viewBox="0 0 313 33" fill="none" xmlns="http://www.w3.org/2000/svg">
<defs><style>.cls-1{fill:#a9c77e;}.cls-1,.cls-2{fill-opacity:0.85;}.cls-2{fill:#1e5494;}.cls-3{fill:#4c8e8b;}</style></defs>
<g id="katman_2" data-name="katman 2"><g id="katman_1-2" data-name="katman 1"><path class="cls-1" d="M250.49,9.82a30,30,0,0,0-9.73,0,12.31,12.31,0,0,0-8.31,6.59c-.79,1.69-.86,2.06-.84,4.43,0,3.3.69,5.13,2.6,7.22a14,14,0,0,0,7.31,3.85,33.67,33.67,0,0,0,11-.3c2.5-.7,5.86-2.09,5.86-2.42a10.19,10.19,0,0,0-1.8-3.36,3.05,3.05,0,0,0-1.42.44,20.28,20.28,0,0,1-9.06,1.93c-3.84,0-5.49-.49-7.46-2.22-1.13-1-2.33-2.78-2.33-3.47,0-.16,4.38-.27,11.51-.29,6.34,0,11.62-.15,11.76-.28.38-.38-.32-4.32-1.05-5.92A11.85,11.85,0,0,0,250.49,9.82Zm-4.88,8.57c-7.37,0-9-.07-9-.37,0-.69,1.62-2.59,2.8-3.28a12.29,12.29,0,0,1,2.8-1.09c4.72-1.14,9.53.16,11.75,3.16C255.16,18.44,255.44,18.39,245.61,18.39Z"/><path class="cls-2" d="M120.65,30.93c2.33,1.15,4,1.38,9.42,1.3l4.73-.08,0-2c0-1.13,0-2.19,0-2.37s-1.51-.34-5.39-.4c-4.91-.09-5.48-.15-6.48-.68a6.51,6.51,0,0,1-3.67-6.15,6.68,6.68,0,0,1,2.21-5.18c2.13-1.6,2.46-1.67,8.14-1.83,5.29-.15,5.31-.15,5.29-.76,0-.34,0-1.41-.06-2.39l-.05-1.77-4.57,0c-2.51,0-5.17.14-5.92.26a9.45,9.45,0,0,0-4.65,1.78,13.58,13.58,0,0,0-4.39,5.14,13.26,13.26,0,0,0-.53,7.87A11.72,11.72,0,0,0,120.65,30.93Z"/><path class="cls-2" d="M84.85,30.09c2.18,1.58,4.13,2,10,2.13,4.75.11,12.3-.38,14.06-.91.44-.14.48-.74.47-7.69a82,82,0,0,0-.27-8.53,7.62,7.62,0,0,0-5-4.92c-1.42-.52-2.27-.61-6.8-.67a41.19,41.19,0,0,0-7.36.32c-1.2.21-2.79.55-3.54.75L85,10.93l-.44,1.75a5.14,5.14,0,0,0-.25,2,15,15,0,0,0,3.7-.49c6.47-1.31,12.44-1.15,15,.41a4,4,0,0,1,1.78,3.28c0,.87,0,.88-1,.71a77.61,77.61,0,0,0-12.47-.2c-5,.7-7.76,2.43-8.56,5.27A6.27,6.27,0,0,0,84.85,30.09Zm8.7-7.87a67.89,67.89,0,0,1,10.22.23l.82.2.07,2.61c.07,2.25,0,2.63-.38,2.78s-3.24.18-6.62.18c-6.66,0-8.51-.27-9.73-1.41a2,2,0,0,1-.65-1.63C87.28,23.33,89.07,22.49,93.55,22.22Z"/><path class="cls-1" d="M289.28,14h4.83v6.08c0,8,.41,9.46,3.09,10.89,1.07.57,1.53.61,7.84.7l6.7.08.18-1.24a7.84,7.84,0,0,0,0-2.06l-.16-.82h-5.08c-7.91,0-8-.09-8.17-8.23l-.1-5.39h6.52c4.7,0,6.6-.09,6.84-.33a6.76,6.76,0,0,0,.16-3.6c-.14-.38-1-.43-6.82-.43h-6.66l0-3.25a20.14,20.14,0,0,0-.14-3.54c-.2-.32-3.75-.42-4.06-.11a19.22,19.22,0,0,0-.18,3.54V9.67h-4.84l-.13,1a12.23,12.23,0,0,0,0,2.18Z"/><path class="cls-2" d="M66.3,31.77V14.36l.89-.17c.48-.1,3.55-.25,6.81-.34,6.74-.19,6.32,0,6.15-2.67-.07-1-.21-1.35-.63-1.49s-3.37-.07-6.82,0-7.24.37-8.44.55l-2.18.34v21l2.11.08Z"/><path class="cls-1" d="M272.34,31.91a31.7,31.7,0,0,0,12.06-.54c3.49-.91,3.54-1,2.85-2.57-.92-2.12-.94-2.13-3.54-1.42-3.09.83-8.73,1.07-10.83.44-3.3-1-5.19-2.79-5.76-5.54-.84-4.05,1.46-7.44,5.74-8.46a21.32,21.32,0,0,1,10.5.38c2.94.8,2.69.86,3.5-.87a4.89,4.89,0,0,0,.62-1.88c-.14-.36-3.31-1.34-5.75-1.77a42.14,42.14,0,0,0-10.26.13c-3.66.89-6.83,3.21-8.09,5.92a12,12,0,0,0-.91,6.91C263.38,27.59,266.7,30.71,272.34,31.91Z"/><path class="cls-1" d="M128.15,18.05c0,.43,0,4.31,0,4.63s1.41.34,6,.34c5.48,0,6,0,6.16.48a15.08,15.08,0,0,0,3,5.16c2.46,2.52,5.52,3.63,10,3.63s7.34-1,9.88-3.56a11.71,11.71,0,0,0-4.36-19.32,25.19,25.19,0,0,0-8.95-.58,12.34,12.34,0,0,0-9.61,8.54c-.15.43-.7.48-6.17.48A45.66,45.66,0,0,0,128.15,18.05Zm23.66,2.45L151.73,18l-3.21-.08-3.2-.07.39-.74a7.24,7.24,0,0,1,4.55-3.33,20.73,20.73,0,0,1,7.35.33,7.48,7.48,0,0,1,4.28,6.11,7.24,7.24,0,0,1-4,6.55c-1.44.7-6.6.85-8.42.24a7.56,7.56,0,0,1-3.77-3.22l-.39-.75h6.58Z"/><path class="cls-1" d="M215.09,9.45c-2.63,0-5.2.08-5.73.13-1.8.19-7,.93-7.43,1.08s-.47.81-.4,10.54l.07,10.41H206l.07-8.76.07-8.75,1-.16c7.44-1.18,13.35-.74,15.11,1.11,1.31,1.36,1.4,1.93,1.52,9.55l.11,7.17,2.08-.08,2.09-.08L228.1,24c.08-8.7-.08-9.75-1.77-11.63C224.23,10,221.76,9.39,215.09,9.45Z"/><path class="cls-1" d="M192.45,10.22c-1.58-.57-2.31-.64-7.34-.71-3.07,0-6.38,0-7.36.16a42.93,42.93,0,0,0-6.49,1.06c-.25.15-.31,2.74-.25,10.54l.07,10.34,4.22.16V14.1l1-.17c.56-.09,2.76-.31,4.89-.49,6.48-.53,10,.31,11.16,2.69.45.91.52,1.91.64,8.26l.14,7.22,2.09.08,2.08.08.2-2.88c.32-4.77,0-12.85-.56-14.43A7.29,7.29,0,0,0,192.45,10.22Z"/><path class="cls-2" d="M25.66,31.18l1.4-.3L27,15.44,26.92,0h-2a6,6,0,0,0-2.25.26,25.64,25.64,0,0,0-.26,5V10l-.89-.17c-.49-.1-2.94-.25-5.46-.34-5.18-.18-7.17.13-10.22,1.61A11.43,11.43,0,0,0,.62,16.68a13.28,13.28,0,0,0,0,8.06c1.26,3.35,4.48,5.83,9.1,7C13.33,32.65,19.87,32.42,25.66,31.18ZM5.06,23.6A9.45,9.45,0,0,1,5.1,18c1-2.25,3.19-3.75,6.56-4.39a29.67,29.67,0,0,1,8.77.21l2,.3.09,5.76c.1,6.85,0,7.7-.56,8-.91.38-9,.48-10.63.12C8.19,27.24,5.93,25.67,5.06,23.6Z"/><path class="cls-2" d="M36.12,30.45c5,2.49,12.53,2.46,18.94-.07,1.41-.56,2.25-1.05,2.25-1.3a10,10,0,0,0-1.88-3.33,7,7,0,0,0-1.31.54,20.88,20.88,0,0,1-8.93,1.91c-3.43,0-5.36-.47-7.26-1.79-1-.72-2.69-3.09-2.69-3.87,0-.28,2.32-.35,11.51-.33l11.51,0V20a7.26,7.26,0,0,0-.88-4.06A12,12,0,0,0,48.91,9.7a26.71,26.71,0,0,0-9.86.33,14,14,0,0,0-6,3.62A11.45,11.45,0,0,0,31.2,25.14,11.76,11.76,0,0,0,36.12,30.45ZM38.3,14.74a12.37,12.37,0,0,1,2.81-1.09c4-1,8.46-.11,10.84,2.11a4.29,4.29,0,0,1,1.54,2.34c0,.2-2.81.29-9,.29-7.37,0-9-.07-9-.37C35.51,17.33,37.12,15.43,38.3,14.74Z"/><rect class="cls-3" x="128.15" y="17.64" width="23.74" height="5.38"/></g></g>
</svg>