<svg width="17" height="17" viewBox="0 0 17 17" fill="none" xmlns="http://www.w3.org/2000/svg">
<path fill-rule="evenodd" clip-rule="evenodd" d="M15.1667 6.29796C14.4303 6.29796 13.8333 5.701 13.8333 4.96463V4.63129C13.8333 3.71082 13.0871 2.96463 12.1667 2.96463H11.8333C11.097 2.96463 10.5 2.36767 10.5 1.63129C10.5 0.894912 9.90305 0.297958 9.16667 0.297958H7.83333C7.09695 0.297958 6.5 0.894912 6.5 1.63129C6.5 2.36767 5.90305 2.96463 5.16667 2.96463H4.83333C3.91286 2.96463 3.16667 3.71082 3.16667 4.63129V4.96463C3.16667 5.70101 2.56971 6.29796 1.83333 6.29796C1.09695 6.29796 0.5 6.89491 0.5 7.63129V8.96463C0.5 9.701 1.09695 10.298 1.83333 10.298C2.56971 10.298 3.16667 10.8949 3.16667 11.6313V11.9646C3.16667 12.8851 3.91286 13.6313 4.83333 13.6313H5.16667C5.90305 13.6313 6.5 14.2282 6.5 14.9646C6.5 15.701 7.09695 16.298 7.83333 16.298H9.16667C9.90305 16.298 10.5 15.701 10.5 14.9646C10.5 14.2282 11.097 13.6313 11.8333 13.6313H12.1667C13.0871 13.6313 13.8333 12.8851 13.8333 11.9646V11.6313C13.8333 10.8949 14.4303 10.298 15.1667 10.298C15.903 10.298 16.5 9.701 16.5 8.96463V7.63129C16.5 6.89491 15.903 6.29796 15.1667 6.29796ZM9.37118 6.25521C9.19761 6.42877 8.91621 6.42877 8.74264 6.25521L8.66407 6.17664C8.44712 5.95968 8.09536 5.95968 7.8784 6.17664L7.79983 6.25521C7.62627 6.42877 7.34486 6.42877 7.17129 6.25521C6.99773 6.08164 6.71632 6.08164 6.54275 6.25521L6.22848 6.56947C6.05492 6.74304 6.05492 7.02445 6.22848 7.19801C6.40205 7.37158 6.40205 7.65299 6.22848 7.82655L6.14992 7.90512C5.93296 8.12208 5.93296 8.47384 6.14992 8.69079L6.22848 8.76936C6.40205 8.94293 6.40205 9.22434 6.22848 9.3979C6.05492 9.57147 6.05492 9.85288 6.22848 10.0264L6.54275 10.3407C6.71632 10.5143 6.99773 10.5143 7.17129 10.3407C7.34486 10.1671 7.62627 10.1671 7.79983 10.3407L7.8784 10.4193C8.09536 10.6362 8.44712 10.6362 8.66407 10.4193L8.74264 10.3407C8.91621 10.1671 9.19761 10.1671 9.37118 10.3407C9.54475 10.5143 9.82615 10.5143 9.99972 10.3407L10.314 10.0264C10.4876 9.85288 10.4876 9.57147 10.314 9.3979C10.1404 9.22434 10.1404 8.94293 10.314 8.76936L10.3926 8.6908C10.6095 8.47384 10.6095 8.12208 10.3926 7.90512L10.314 7.82655C10.1404 7.65299 10.1404 7.37158 10.314 7.19801C10.4876 7.02445 10.4876 6.74304 10.314 6.56947L9.99972 6.25521C9.82615 6.08164 9.54475 6.08164 9.37118 6.25521Z" fill="black" fill-opacity="0.65"/>
</svg>
