<svg width="23" height="17" viewBox="0 0 23 17" fill="none" xmlns="http://www.w3.org/2000/svg">
<path d="M11.635 14.1771C11.9141 14.3806 11.9755 14.7735 11.7684 15.0517L11.051 16.0224C10.8599 16.2837 10.4448 16.3549 10.1746 16.1566C9.89545 15.9513 9.83414 15.5593 10.0395 15.2802L10.7586 14.3095C10.9622 14.034 11.3541 13.97 11.635 14.1771ZM7.25372 13.2473L7.97106 12.2811C8.1755 12.002 8.1168 11.61 7.83591 11.4037C7.55502 11.1975 7.16394 11.2588 6.9595 11.538L6.24303 12.5051C6.03858 12.7833 6.09814 13.1771 6.37725 13.3824C6.64214 13.5762 7.05994 13.5122 7.25372 13.2473ZM9.49015 13.3877L8.7746 14.3531C8.56927 14.6331 8.6306 15.026 8.90883 15.2313C9.17638 15.4277 9.59327 15.3602 9.78616 15.0971L10.5017 14.13C10.707 13.8517 10.6466 13.4588 10.3675 13.2526C10.0893 13.0482 9.69815 13.1077 9.49015 13.3877ZM12.6573 15.2695C12.5435 15.538 12.2377 15.9148 12.0288 16.1975C12.1666 16.2686 12.3044 16.298 12.4297 16.298C12.9115 16.298 13.2315 15.8437 12.7986 15.4108L12.6573 15.2695ZM8.22523 12.4633L7.5035 13.4375C7.29906 13.7166 7.36389 14.1006 7.64212 14.3068C7.91589 14.5068 8.3248 14.4402 8.51413 14.1797L9.23592 13.2046C9.44214 12.9273 9.38083 12.5335 9.10083 12.3282C8.82083 12.1237 8.42968 12.1851 8.22523 12.4633ZM19.555 11.7424L22.1666 11.0482L20.7595 5.63129L18.1115 6.42774L19.555 11.7424ZM17.3488 7.01174C16.0573 7.10596 14.8297 6.6304 13.4813 5.9344C13.1844 5.78151 12.8421 5.65707 12.5079 5.65707C12.2003 5.65707 11.899 5.76285 11.6466 6.04907C10.7363 7.08107 10.2075 7.99307 9.12302 8.62507C8.5888 8.93707 9.21546 9.91396 10.3639 9.51307C10.9488 9.30774 11.7417 8.77796 12.3879 8.25707C12.8964 7.84729 13.2004 7.90685 13.6412 8.34774C14.4661 9.17351 17.2439 11.9148 17.2439 11.9148C17.6732 11.65 18.0884 11.4357 18.4999 11.2517L17.3488 7.01174ZM4.88837 6.42774L2.24037 5.63129L0.833252 11.0482L3.4448 11.7424L4.88837 6.42774ZM16.8048 12.762C16.3746 12.2864 13.483 9.44374 12.9693 8.93085C12.0973 9.58507 10.9488 10.4962 9.83949 10.4962C9.00127 10.4962 8.28214 10.0011 8.09014 9.29262C7.93636 8.72818 8.17278 8.1504 8.67678 7.85618C9.3079 7.48818 9.72657 6.98418 10.2368 6.35307C8.67768 5.36818 7.34791 6.96818 5.65991 6.98329L4.52835 11.1477C5.02257 11.2651 5.4528 11.3895 5.85192 11.5397L6.24303 11.0108C6.94703 10.05 8.41548 10.2491 8.86526 11.3228C9.43415 11.3726 9.91949 11.7397 10.131 12.2473C10.6813 12.2953 11.1746 12.6446 11.395 13.1708C12.227 13.2428 12.9061 13.9975 12.755 14.9237L13.3363 15.5051C13.5808 15.7504 13.979 15.7495 14.2226 15.5051C14.4679 15.2597 14.4679 14.8624 14.2226 14.6171L13.099 13.4926C13.0377 13.4313 13.0377 13.33 13.1017 13.2686C13.163 13.21 13.2608 13.2108 13.3213 13.2704L14.675 14.6251C14.9195 14.8704 15.3177 14.8704 15.5621 14.6251C15.8075 14.3797 15.8075 13.9833 15.5621 13.738L13.8955 12.0704C13.8315 12.0073 13.8341 11.9033 13.9008 11.8437C13.9621 11.7877 14.059 11.7886 14.1168 11.8482L15.9168 13.6482C16.1612 13.8935 16.5595 13.8935 16.8039 13.6482C17.0492 13.4037 17.0493 13.0073 16.8048 12.762ZM10.2394 0.297958L9.36483 0.452625L9.82794 3.0784L10.7026 2.92373L10.2394 0.297958ZM13.635 0.452625L12.7604 0.297958L12.2972 2.92373L13.1737 3.0784L13.635 0.452625ZM16.8333 1.54418L16.0626 1.09974L14.7292 3.40907L15.4999 3.85351L16.8333 1.54418ZM6.93726 1.09974L6.16659 1.54418L7.49992 3.85351L8.27059 3.40907L6.93726 1.09974Z" fill="black" fill-opacity="0.65"/>
</svg>
