<svg xmlns="http://www.w3.org/2000/svg" xmlns:xlink="http://www.w3.org/1999/xlink" preserveAspectRatio="xMidYMid meet" version="1.0" viewBox="0.0 0.0 500.0 403.1" zoomAndPan="magnify" style="fill: rgb(0, 0, 0);" height="403px" width="500px"><defs><clipPath id="__id5_sa3n5zmsxn"><path d="M 6 5 L 500 5 L 500 403.128906 L 6 403.128906 Z M 6 5"></path></clipPath></defs><g><g id="__id6_sa3n5zmsxn"><path d="M 362.605469 20.8125 L 296.105469 20.8125 L 296.105469 113.898438 L 362.605469 113.898438 Z M 497.773438 393.5 L 6.417969 393.5 C 5.152344 254.835938 47.558594 205.796875 89.386719 183.8125 C 117.070312 169.265625 120.070312 124.726562 144.796875 96.25 L 142.960938 96.25 L 142.960938 4.195312 L 265.808594 4.195312 L 265.808594 96.25 L 258.171875 96.25 C 291.921875 137.027344 294.417969 214.492188 320.394531 224.398438 C 355.875 237.925781 379.859375 161.832031 423.738281 202.414062 C 467.617188 243 497.773438 393.5 497.773438 393.5" style="fill: rgb(232, 232, 232);"></path></g><g clip-path="url(#__id5_sa3n5zmsxn)" id="__id7_sa3n5zmsxn"><path d="M 232.003906 50.304688 L 232.003906 32.816406 L 234.117188 32.816406 L 234.117188 50.304688 L 262.554688 50.304688 L 262.554688 52.417969 L 248.21875 52.417969 L 248.21875 90.339844 L 246.105469 90.339844 L 246.105469 86.027344 L 146.191406 86.027344 C 145.582031 87.183594 145.773438 88.738281 146.191406 90.414062 C 167.191406 92 216.21875 91.101562 262.855469 90.414062 C 264.523438 68.449219 264.015625 38.839844 262.855469 6.933594 L 261.851562 6.933594 L 250.6875 32.871094 L 199.535156 32.414062 L 184.761719 16.621094 L 146.191406 16.621094 C 144.214844 25.640625 144.726562 37.4375 146.191406 50.304688 Z M 162.855469 83.914062 L 176.011719 52.417969 L 146.191406 52.417969 C 144.464844 60.113281 145.074219 71.605469 146.191406 83.914062 Z M 182.785156 14.507812 L 175.699219 6.933594 L 145.46875 5.300781 L 146.191406 14.507812 Z M 249.300781 30.742188 L 259.550781 6.933594 C 241.847656 4.105469 210.6875 5.375 178.59375 6.933594 L 200.460938 30.308594 Z M 395.496094 57.007812 C 396.039062 57.0625 396.527344 56.671875 396.582031 56.128906 L 399.292969 30.859375 L 397.332031 30.648438 L 394.621094 55.917969 C 394.5625 56.460938 394.957031 56.945312 395.496094 57.007812 Z M 297.769531 111.574219 L 360.945312 111.574219 L 360.945312 23.140625 L 297.769531 23.140625 Z M 291.9375 113.058594 L 291.9375 19.953125 C 291.9375 17.320312 294.074219 15.183594 296.703125 15.183594 L 362.007812 15.183594 C 364.640625 15.183594 366.773438 17.320312 366.773438 19.953125 L 366.773438 113.058594 C 366.773438 115.691406 364.640625 117.824219 362.007812 117.824219 L 296.703125 117.824219 C 294.074219 117.824219 291.9375 115.691406 291.9375 113.058594 Z M 383.710938 106.824219 L 385.105469 106.976562 C 385.878906 106.351562 386.519531 104.910156 387.21875 103.808594 C 387.835938 102.832031 388.222656 101.730469 388.34375 100.585938 L 395.894531 30.183594 C 396.007812 29.136719 395.246094 28.191406 394.195312 28.078125 L 391.554688 27.796875 C 390.503906 27.683594 389.558594 28.445312 389.449219 29.496094 L 381.898438 99.890625 C 381.777344 101.039062 381.921875 102.199219 382.316406 103.28125 C 382.765625 104.507812 383.085938 106.050781 383.710938 106.824219 Z M 94.425781 271.746094 L 66.601562 271.746094 L 66.601562 290.347656 L 94.425781 290.347656 Z M 497.773438 393.5 L 449.808594 393.5 L 461.605469 268.683594 C 456.175781 254.78125 450.222656 241.554688 443.832031 230.125 L 428.390625 393.5 L 353.492188 393.5 C 353.492188 393.5 368.152344 333.054688 375.148438 295.496094 C 377.179688 288.609375 378.882812 280.320312 378.667969 272.097656 C 378.800781 270.253906 378.816406 268.789062 378.691406 267.800781 C 378.390625 265.417969 377.820312 263.160156 377.03125 261.019531 C 374.644531 252.863281 369.40625 245.515625 359.535156 240.625 C 345.523438 231.15625 329.058594 227.359375 329.058594 227.359375 C 329.058594 227.359375 328.683594 219.730469 320.890625 213.570312 L 322.09375 206.484375 C 322.238281 205.621094 321.65625 204.804688 320.796875 204.65625 C 319.929688 204.511719 319.113281 205.09375 318.96875 205.953125 L 318.011719 211.585938 C 317.609375 211.34375 317.195312 211.101562 316.761719 210.871094 C 316.761719 210.871094 292.59375 211.855469 287.996094 214.113281 C 283.402344 216.367188 278.328125 220.171875 278.328125 220.171875 L 272.199219 212.984375 C 272.199219 212.984375 265.222656 213.203125 262.261719 216.898438 C 259.304688 220.59375 255.078125 227.78125 255.078125 227.78125 C 255.078125 227.78125 241.574219 228.503906 229.722656 236.292969 C 222.871094 238.9375 208.859375 245.238281 202.445312 254.625 C 193.777344 267.308594 175.386719 305.144531 175.386719 305.144531 C 175.386719 305.144531 184.265625 317.289062 206.460938 325.800781 L 206.445312 393.5 L 6.101562 393.5 L 6.101562 403.128906 L 500 403.128906 Z M 360.914062 205.953125 L 358.238281 221.738281 C 358.09375 222.601562 358.671875 223.417969 359.535156 223.566406 C 359.625 223.582031 359.714844 223.589844 359.804688 223.589844 C 360.5625 223.589844 361.234375 223.042969 361.363281 222.269531 L 364.042969 206.484375 C 364.1875 205.621094 363.605469 204.804688 362.742188 204.65625 C 361.878906 204.511719 361.0625 205.09375 360.914062 205.953125 Z M 266.113281 139.636719 C 266.113281 139.636719 270.507812 127.164062 279.386719 126.742188 C 288.261719 126.320312 307.921875 133.9375 312.570312 137.421875 C 317.222656 140.90625 315.457031 164.789062 315.457031 164.789062 C 315.457031 164.789062 308.125 155.660156 288.898438 149.992188 C 274.523438 145.757812 266.113281 150.390625 266.113281 150.390625 C 266.113281 150.390625 249.582031 143.863281 251.90625 141.328125 C 254.230469 138.789062 266.113281 139.636719 266.113281 139.636719" style="fill: rgb(71, 137, 117);"></path></g><g id="__id8_sa3n5zmsxn"><path d="M 382.996094 190.785156 C 383.363281 188.535156 383.726562 186.085938 384.105469 183.296875 C 384.890625 177.496094 385.453125 172.722656 385.871094 168.265625 C 385.976562 167.003906 386.078125 165.742188 386.144531 164.480469 C 386.210938 163.363281 386.238281 161.90625 385.804688 160.527344 C 385.0625 158.089844 383.261719 155.988281 380.734375 154.609375 L 380.566406 154.546875 L 380.488281 154.546875 C 380.300781 154.546875 380.128906 154.644531 380.035156 154.804688 C 379.96875 154.925781 379.949219 155.066406 379.988281 155.199219 C 380.023438 155.332031 380.109375 155.445312 380.246094 155.523438 C 382.460938 156.789062 384.070312 158.734375 384.660156 160.867188 C 385.007812 162.0625 384.964844 163.324219 384.878906 164.398438 C 384.789062 165.644531 384.664062 166.890625 384.53125 168.136719 C 384.050781 172.78125 383.433594 177.671875 382.65625 183.09375 C 382.257812 185.867188 381.878906 188.300781 381.5 190.53125 L 381.3125 191.574219 C 380.945312 193.664062 380.5625 195.828125 379.949219 197.8125 C 379.929688 197.898438 379.882812 197.996094 379.847656 198.074219 C 379.675781 198.101562 379.457031 198.121094 379.210938 198.144531 C 378.605469 198.195312 377.980469 198.222656 377.363281 198.246094 C 376.113281 198.296875 374.859375 198.320312 373.609375 198.34375 L 366.066406 198.394531 C 362.265625 198.421875 358.464844 198.433594 354.664062 198.433594 C 348.398438 198.433594 342.136719 198.402344 335.875 198.367188 L 320.773438 198.253906 L 305.667969 198.195312 C 305.367188 198.195312 305.117188 198.4375 305.109375 198.738281 C 305.105469 199.046875 305.347656 199.300781 305.65625 199.308594 L 320.757812 199.65625 L 335.859375 199.871094 C 345.363281 199.984375 354.664062 200.085938 363.933594 200.085938 L 366.078125 200.082031 L 373.640625 199.972656 C 374.902344 199.941406 376.164062 199.90625 377.433594 199.851562 C 378.070312 199.820312 378.703125 199.785156 379.359375 199.726562 L 379.574219 199.703125 C 379.835938 199.679688 380.09375 199.652344 380.410156 199.574219 C 380.925781 199.457031 381.15625 198.988281 381.238281 198.828125 C 381.320312 198.644531 381.402344 198.457031 381.449219 198.292969 C 382.085938 196.175781 382.441406 194.054688 382.789062 192.003906 Z M 393.445312 313.871094 C 393.476562 313.59375 393.285156 313.34375 392.929688 313.296875 C 392.675781 313.296875 392.457031 313.484375 392.417969 313.738281 C 391.371094 320.761719 390.4375 327.269531 389.558594 333.632812 L 386.859375 353.546875 L 384.304688 373.476562 C 383.496094 379.902344 382.695312 386.617188 381.914062 393.433594 C 381.878906 393.730469 382.085938 394 382.386719 394.046875 L 382.46875 394.050781 C 382.738281 394.050781 382.976562 393.847656 383.015625 393.578125 C 384.023438 386.792969 384.980469 380.101562 385.859375 373.679688 L 388.535156 353.765625 L 391.074219 333.828125 C 391.863281 327.488281 392.640625 320.960938 393.445312 313.871094 Z M 385.96875 220.070312 C 385.941406 220.207031 385.972656 220.347656 386.050781 220.460938 C 386.128906 220.574219 386.246094 220.652344 386.390625 220.683594 C 388.25 221.042969 390.132812 221.664062 391.984375 222.535156 C 393.878906 223.433594 395.496094 224.527344 396.800781 225.800781 C 398.246094 227.199219 399.316406 228.84375 399.894531 230.554688 C 400.195312 231.429688 400.296875 232.410156 400.359375 233.339844 C 400.425781 234.230469 400.4375 235.152344 400.449219 236.042969 L 400.449219 236.308594 C 400.355469 244.652344 399.515625 253.371094 398.839844 260.378906 C 398.097656 268.257812 397.222656 275.929688 396.242188 284.425781 L 393.367188 308.453125 C 393.328125 308.75 393.539062 309.03125 393.832031 309.074219 L 393.917969 309.078125 C 394.191406 309.078125 394.425781 308.875 394.46875 308.609375 C 395.65625 300.773438 396.78125 292.699219 397.800781 284.613281 C 398.824219 276.527344 399.738281 268.429688 400.519531 260.539062 C 400.953125 255.917969 401.269531 252.078125 401.519531 248.453125 C 401.785156 244.382812 402.019531 240.390625 401.976562 236.296875 L 401.96875 236.007812 C 401.945312 235.097656 401.917969 234.15625 401.835938 233.226562 C 401.753906 232.203125 401.625 231.113281 401.25 230.074219 C 400.566406 228.144531 399.347656 226.332031 397.722656 224.824219 C 396.285156 223.488281 394.519531 222.355469 392.480469 221.453125 C 390.511719 220.589844 388.519531 219.984375 386.480469 219.652344 C 386.230469 219.652344 386.019531 219.828125 385.96875 220.070312 Z M 408.390625 248.683594 C 408.128906 248.683594 407.910156 248.878906 407.875 249.132812 L 405.488281 266.914062 L 398.605469 320.292969 L 392.035156 373.710938 L 389.945312 391.53125 C 389.910156 391.828125 390.125 392.105469 390.425781 392.148438 L 390.5 392.152344 C 390.777344 392.152344 391.015625 391.945312 391.050781 391.667969 L 393.433594 373.886719 L 400.28125 320.503906 L 406.820312 267.082031 L 408.90625 249.261719 C 408.9375 248.984375 408.738281 248.726562 408.390625 248.683594 Z M 49.800781 110.9375 C 49.800781 119.050781 56.375 125.625 64.488281 125.625 C 72.597656 125.625 79.175781 119.050781 79.175781 110.9375 C 79.175781 102.824219 72.597656 96.25 64.488281 96.25 C 56.375 96.25 49.800781 102.824219 49.800781 110.9375 Z M 34.503906 110.9375 C 34.503906 94.378906 47.929688 80.953125 64.488281 80.953125 C 81.046875 80.953125 94.46875 94.378906 94.46875 110.9375 C 94.46875 127.496094 81.046875 140.917969 64.488281 140.917969 C 47.929688 140.917969 34.503906 127.496094 34.503906 110.9375 Z M 121.132812 232.058594 L 123.121094 228.738281 L 125.109375 232.058594 L 127.097656 228.738281 L 129.085938 232.058594 L 131.070312 228.738281 L 133.0625 232.058594 L 133.0625 200.421875 L 117.15625 200.421875 L 117.15625 232.058594 L 119.144531 228.738281 Z M 89.921875 274.757812 L 71.109375 274.757812 L 71.109375 287.335938 L 89.921875 287.335938 Z M 101.890625 298.054688 L 0 298.054688 L 0 200.347656 L 101.890625 200.347656 Z M 178.257812 308.351562 C 171.121094 324.78125 166.621094 337.980469 166.621094 337.980469 L 79.757812 337.828125 L 64.09375 329.910156 C 64.09375 329.910156 59.058594 328.679688 54.496094 330.226562 C 49.933594 331.777344 44.6875 345.023438 44.6875 345.023438 C 44.6875 345.023438 50.464844 357.285156 55.601562 360.101562 C 60.734375 362.917969 67.625 363.113281 67.625 363.113281 C 67.625 363.113281 179.851562 389.882812 190.214844 382.621094 C 193.15625 380.558594 199.484375 375.03125 207.234375 367.4375 C 207.691406 353.609375 206.460938 325.800781 206.460938 325.800781 C 191.355469 320.007812 182.425781 312.539062 178.257812 308.351562" style="fill: rgb(164, 203, 98);"></path></g><g id="__id9_sa3n5zmsxn"><path d="M 180.496094 53.605469 L 168.554688 82.351562 L 244.226562 82.351562 L 244.226562 53.605469 Z M 221.421875 18.207031 C 223.648438 18.207031 225.457031 20.015625 225.457031 22.242188 C 225.457031 24.472656 223.648438 26.28125 221.421875 26.28125 C 219.753906 26.28125 218.320312 25.265625 217.703125 23.820312 L 217.703125 20.664062 C 218.320312 19.222656 219.753906 18.207031 221.421875 18.207031 Z M 227.988281 14.855469 C 226.8125 13.808594 225.394531 13.046875 223.820312 12.652344 L 223.820312 6.933594 L 256.027344 6.933594 L 252.71875 14.855469 Z M 191.886719 14.992188 L 184.324219 6.933594 L 220.242188 6.933594 L 220.242188 12.425781 C 218.113281 12.675781 216.199219 13.605469 214.707031 14.992188 Z M 159.253906 79.292969 L 146.191406 79.316406 L 146.191406 63.257812 L 149.808594 55.394531 L 170.269531 55.355469 Z M 203.59375 46.925781 L 177.597656 46.925781 L 177.597656 36.097656 L 177.617188 36.097656 L 177.617188 19.746094 L 182.238281 19.726562 L 198.742188 36.097656 L 203.59375 36.097656 Z M 229.742188 28.035156 C 230.683594 25.691406 231.308594 23.609375 231.308594 22.234375 C 231.308594 20.304688 230.746094 18.507812 229.789062 16.984375 L 251.222656 16.984375 L 246.601562 28.035156 Z M 175.082031 46.527344 L 149.71875 46.527344 L 149.71875 19.746094 L 175.082031 19.746094 Z M 238.675781 35.871094 L 262.046875 35.871094 L 262.046875 46.921875 L 238.675781 46.921875 Z M 213.054688 16.984375 C 212.09375 18.507812 211.53125 20.304688 211.53125 22.234375 C 211.53125 23.609375 212.160156 25.691406 213.097656 28.035156 L 202.214844 28.035156 L 193.472656 16.984375 Z M 229.253906 46.921875 L 205.882812 46.921875 L 205.882812 35.871094 L 216.769531 35.871094 C 219.140625 40.453125 221.421875 44.277344 221.421875 44.277344 C 221.421875 44.277344 223.703125 40.453125 226.074219 35.871094 L 229.253906 35.871094 Z M 89.628906 152.953125 C 91.425781 157.328125 89.53125 162.144531 89.53125 162.144531 L 82.195312 177.839844 L 81.335938 179.679688 L 80.355469 176.980469 L 77.65625 177.960938 L 76.675781 175.257812 L 73.976562 176.238281 L 72.996094 173.539062 L 70.296875 174.519531 L 69.316406 171.820312 L 66.617188 172.800781 L 67.476562 170.960938 L 74.808594 155.265625 C 74.808594 155.265625 78.074219 149.128906 72.855469 144.742188 L 83.382812 144.742188 C 83.382812 144.742188 87.238281 147.140625 89.628906 152.953125 Z M 138.820312 287.335938 L 116.34375 287.335938 L 116.34375 270.691406 L 138.820312 270.691406 Z M 144.664062 200.347656 L 131.5625 200.347656 L 131.5625 226.695312 L 129.90625 223.929688 L 128.25 226.695312 L 126.59375 223.929688 L 124.9375 226.695312 L 123.28125 223.929688 L 121.628906 226.695312 L 119.972656 223.929688 L 118.316406 226.695312 L 118.316406 200.347656 L 101.890625 200.347656 L 101.890625 298.054688 L 144.664062 298.054688 Z M 40.546875 223.929688 L 37.785156 226.695312 L 37.785156 200.347656 L 59.902344 200.347656 L 59.902344 226.695312 L 57.136719 223.929688 L 54.375 226.695312 L 51.609375 223.929688 L 48.84375 226.695312 L 46.078125 223.929688 L 43.3125 226.695312 Z M 340.652344 347.425781 C 327.03125 366.828125 312.84375 383.152344 308.484375 387.582031 C 300.457031 395.738281 205.460938 391.597656 187.359375 390.730469 C 187.175781 390.808594 187.011719 390.839844 186.871094 390.820312 C 186.429688 390.761719 185.535156 390.683594 184.390625 390.582031 C 184.390625 390.582031 184.386719 390.582031 184.386719 390.582031 C 180.058594 390.199219 171.960938 389.480469 169.398438 388.144531 C 166.15625 386.453125 156.855469 389.554688 154.179688 386.171875 C 151.503906 382.789062 154.179688 380.816406 150.65625 377.859375 C 147.132812 374.898438 147.273438 369.824219 147.273438 369.824219 C 147.273438 369.824219 142.625 368.558594 140.511719 366.867188 C 139.867188 366.351562 139.617188 365.125 139.628906 363.613281 C 138.773438 364.472656 137.808594 365.210938 136.707031 365.671875 C 131.492188 367.851562 131.492188 361.230469 133.464844 358.410156 C 135.4375 355.59375 136.601562 347.949219 136.601562 347.949219 L 142.378906 353.460938 C 144.296875 350.972656 150.917969 342.253906 154.21875 342.253906 C 157.601562 342.253906 164.183594 344.460938 164.183594 344.460938 C 164.183594 344.460938 178.394531 352.09375 187.253906 360.324219 L 277.199219 347.949219 C 277.199219 347.949219 282.328125 334.878906 289.582031 318.25 C 289.589844 318.253906 313.308594 340.933594 340.652344 347.425781 Z M 266.113281 150.390625 C 266.113281 150.390625 274.523438 145.757812 288.898438 149.992188 C 301.808594 153.800781 309.332031 159.152344 312.898438 162.265625 C 313.632812 162.148438 314.457031 162.226562 315.367188 162.636719 C 319.332031 164.433594 317.847656 174.152344 315.371094 176.375 L 316.484375 210.882812 C 313.800781 211 292.304688 211.996094 287.996094 214.113281 C 283.402344 216.367188 278.328125 220.171875 278.328125 220.171875 L 272.753906 213.636719 L 273.445312 202.535156 C 273.445312 202.535156 273.445312 202.535156 262.695312 195.125 C 254.390625 189.398438 262.152344 162.382812 266.113281 150.390625 Z M 66.398438 343.285156 C 66.261719 342.554688 66.105469 342.066406 66.105469 342.066406 C 66.105469 342.066406 66.261719 342.082031 66.503906 342.089844 C 66.453125 342.484375 66.417969 342.882812 66.398438 343.285156 Z M 71.953125 335.695312 L 63.570312 329.523438 L 64.472656 323.996094 L 70.148438 321.648438 C 70.148438 321.648438 66.246094 316.417969 61.03125 318.25 C 61.03125 318.25 55.675781 317.136719 53.28125 320.015625 C 50.886719 322.898438 51.871094 325.800781 51.871094 325.800781 C 51.871094 325.800781 44.96875 326.988281 46.238281 333.75 C 46.238281 333.75 40.882812 335.722656 42.148438 341.640625 C 42.148438 341.640625 38.203125 344.53125 39.050781 347.949219 C 39.894531 351.367188 47.355469 358.972656 49.195312 358.976562 C 57.367188 358.976562 55.597656 355.453125 55.597656 355.453125 L 55.960938 355.402344 C 58.726562 355.019531 60.847656 352.746094 61.03125 349.957031 C 61.03125 349.957031 64.980469 350.308594 66.105469 347.949219 C 66.234375 347.675781 66.332031 347.386719 66.40625 347.09375 C 66.417969 347.792969 66.421875 348.472656 66.386719 349.109375 C 66.171875 353.0625 71.742188 355.167969 73.011719 350.378906 C 74.277344 345.585938 78.367188 345.585938 80.058594 342.253906 C 81.746094 338.925781 77.210938 333.929688 77.210938 333.929688 C 77.210938 333.929688 74.722656 334.441406 71.953125 335.695312" style="fill: rgb(216, 121, 88);"></path></g><g id="__id10_sa3n5zmsxn"><path d="M 303.65625 36 L 314.226562 36 C 314.519531 36 314.753906 35.765625 314.753906 35.472656 C 314.753906 35.179688 314.519531 34.945312 314.226562 34.945312 L 303.65625 34.945312 C 303.363281 34.945312 303.128906 35.179688 303.128906 35.472656 C 303.128906 35.765625 303.363281 36 303.65625 36 Z M 303.65625 42.921875 L 321.691406 42.921875 C 321.984375 42.921875 322.222656 42.683594 322.222656 42.390625 C 322.222656 42.101562 321.984375 41.863281 321.691406 41.863281 L 303.65625 41.863281 C 303.363281 41.863281 303.128906 42.101562 303.128906 42.390625 C 303.128906 42.683594 303.363281 42.921875 303.65625 42.921875 Z M 303.65625 29.71875 L 316.128906 29.71875 C 316.417969 29.71875 316.65625 29.484375 316.65625 29.191406 C 316.65625 28.898438 316.417969 28.664062 316.128906 28.664062 L 303.65625 28.664062 C 303.363281 28.664062 303.128906 28.898438 303.128906 29.191406 C 303.128906 29.484375 303.363281 29.71875 303.65625 29.71875 Z M 303.65625 46.0625 L 314.328125 46.0625 C 314.621094 46.0625 314.859375 45.824219 314.859375 45.53125 C 314.859375 45.242188 314.621094 45.003906 314.328125 45.003906 L 303.65625 45.003906 C 303.363281 45.003906 303.128906 45.242188 303.128906 45.53125 C 303.128906 45.824219 303.363281 46.0625 303.65625 46.0625 Z M 303.65625 32.859375 L 311.035156 32.859375 C 311.328125 32.859375 311.5625 32.621094 311.5625 32.332031 C 311.5625 32.039062 311.328125 31.804688 311.035156 31.804688 L 303.65625 31.804688 C 303.363281 31.804688 303.128906 32.039062 303.128906 32.332031 C 303.128906 32.621094 303.363281 32.859375 303.65625 32.859375 Z M 304.183594 78.863281 L 353.4375 78.863281 L 353.4375 53.289062 L 304.183594 53.289062 Z M 303.128906 79.394531 L 303.128906 52.761719 C 303.128906 52.46875 303.363281 52.230469 303.65625 52.230469 L 353.964844 52.230469 C 354.253906 52.230469 354.492188 52.46875 354.492188 52.761719 L 354.492188 79.394531 C 354.492188 79.683594 354.253906 79.921875 353.964844 79.921875 L 303.65625 79.921875 C 303.363281 79.921875 303.128906 79.683594 303.128906 79.394531 Z M 303.65625 99.578125 L 314.226562 99.578125 C 314.519531 99.578125 314.753906 99.34375 314.753906 99.050781 C 314.753906 98.757812 314.519531 98.523438 314.226562 98.523438 L 303.65625 98.523438 C 303.363281 98.523438 303.128906 98.757812 303.128906 99.050781 C 303.128906 99.34375 303.363281 99.578125 303.65625 99.578125 Z M 303.65625 86.371094 L 330.59375 86.371094 C 330.886719 86.371094 331.121094 86.136719 331.121094 85.84375 C 331.121094 85.550781 330.886719 85.316406 330.59375 85.316406 L 303.65625 85.316406 C 303.363281 85.316406 303.128906 85.550781 303.128906 85.84375 C 303.128906 86.136719 303.363281 86.371094 303.65625 86.371094 Z M 303.65625 83.34375 L 318.21875 83.34375 C 318.511719 83.34375 318.746094 83.109375 318.746094 82.816406 C 318.746094 82.523438 318.511719 82.285156 318.21875 82.285156 L 303.65625 82.285156 C 303.363281 82.285156 303.128906 82.523438 303.128906 82.816406 C 303.128906 83.109375 303.363281 83.34375 303.65625 83.34375 Z M 326.109375 10.734375 C 326.109375 12.488281 327.53125 13.910156 329.285156 13.910156 C 331.039062 13.910156 332.464844 12.488281 332.464844 10.734375 C 332.464844 8.980469 331.039062 7.558594 329.285156 7.558594 C 327.53125 7.558594 326.109375 8.980469 326.109375 10.734375 Z M 309.449219 18.746094 L 309.449219 14.890625 C 309.449219 12.59375 311.308594 10.734375 313.605469 10.734375 L 322.746094 10.734375 C 322.746094 7.121094 325.675781 4.195312 329.285156 4.195312 C 332.898438 4.195312 335.824219 7.121094 335.824219 10.734375 L 344.96875 10.734375 C 347.261719 10.734375 349.121094 12.59375 349.121094 14.890625 L 349.121094 18.746094 C 349.121094 19.238281 348.722656 19.636719 348.230469 19.636719 L 310.339844 19.636719 C 309.847656 19.636719 309.449219 19.238281 309.449219 18.746094 Z M 303.65625 49.199219 L 318.945312 49.199219 C 319.238281 49.199219 319.472656 48.964844 319.472656 48.671875 C 319.472656 48.382812 319.238281 48.144531 318.945312 48.144531 L 303.65625 48.144531 C 303.363281 48.144531 303.128906 48.382812 303.128906 48.671875 C 303.128906 48.964844 303.363281 49.199219 303.65625 49.199219 Z M 242.660156 55.394531 L 229.253906 55.394531 L 229.253906 80.886719 L 242.660156 80.886719 Z M 225.902344 55.394531 L 213.039062 55.394531 L 213.039062 72.652344 L 225.902344 72.652344 Z M 225.902344 75.367188 L 173.996094 75.367188 L 172.003906 81.140625 L 225.902344 81.140625 Z M 174.84375 72.652344 L 209.597656 72.652344 L 209.597656 55.394531 L 182.78125 55.394531 Z M 246.105469 83.914062 L 165.148438 83.914062 L 178.300781 52.417969 L 246.105469 52.417969 Z M 354.492188 82.816406 C 354.492188 82.523438 354.253906 82.285156 353.964844 82.285156 L 321.199219 82.285156 C 320.90625 82.285156 320.671875 82.523438 320.671875 82.816406 C 320.671875 83.109375 320.90625 83.34375 321.199219 83.34375 L 353.964844 83.34375 C 354.253906 83.34375 354.492188 83.109375 354.492188 82.816406 Z M 217.386719 22.242188 C 217.386719 22.804688 217.5 23.335938 217.703125 23.820312 C 218.320312 25.265625 219.753906 26.28125 221.421875 26.28125 C 223.648438 26.28125 225.457031 24.472656 225.457031 22.242188 C 225.457031 20.015625 223.648438 18.207031 221.421875 18.207031 C 219.753906 18.207031 218.320312 19.222656 217.703125 20.664062 C 217.5 21.152344 217.386719 21.683594 217.386719 22.242188 Z M 213.097656 28.035156 C 212.160156 25.691406 211.53125 23.609375 211.53125 22.234375 C 211.53125 20.304688 212.09375 18.507812 213.054688 16.984375 C 213.515625 16.25 214.070312 15.578125 214.707031 14.992188 C 216.199219 13.605469 218.113281 12.675781 220.242188 12.425781 C 220.628906 12.378906 221.019531 12.347656 221.421875 12.347656 C 222.25 12.347656 223.050781 12.460938 223.820312 12.652344 C 225.394531 13.046875 226.8125 13.808594 227.988281 14.855469 C 228.683594 15.476562 229.289062 16.191406 229.789062 16.984375 C 230.746094 18.507812 231.308594 20.304688 231.308594 22.234375 C 231.308594 23.609375 230.683594 25.691406 229.742188 28.035156 C 229.417969 28.851562 229.046875 29.699219 228.65625 30.558594 C 228.339844 31.257812 228.015625 31.960938 227.675781 32.664062 C 227.152344 33.746094 226.613281 34.828125 226.074219 35.871094 C 223.703125 40.453125 221.421875 44.277344 221.421875 44.277344 C 221.421875 44.277344 219.140625 40.453125 216.769531 35.871094 C 216.210938 34.792969 215.652344 33.675781 215.113281 32.550781 C 214.773438 31.839844 214.441406 31.132812 214.125 30.429688 C 213.761719 29.617188 213.410156 28.808594 213.097656 28.035156 Z M 145.921875 86.027344 L 146.191406 86.027344 L 146.191406 90.414062 L 262.855469 90.414062 L 262.855469 6.933594 L 261.851562 6.933594 L 261.921875 6.769531 L 259.621094 6.769531 L 259.550781 6.933594 L 178.59375 6.933594 L 178.441406 6.769531 L 175.546875 6.769531 L 175.699219 6.933594 L 146.191406 6.933594 L 146.191406 14.507812 L 145.921875 14.507812 L 145.921875 16.621094 L 146.191406 16.621094 L 146.191406 50.304688 L 145.921875 50.304688 L 145.921875 52.417969 L 146.191406 52.417969 L 146.191406 83.914062 L 145.921875 83.914062 Z M 139.027344 92.242188 L 139.027344 5.105469 C 139.027344 2.285156 141.316406 0 144.136719 0 L 264.914062 0 C 267.734375 0 270.019531 2.285156 270.019531 5.105469 L 270.019531 92.242188 C 270.019531 95.0625 267.734375 97.347656 264.914062 97.347656 L 144.136719 97.347656 C 141.316406 97.347656 139.027344 95.0625 139.027344 92.242188 Z M 397.171875 32.140625 L 395.699219 31.984375 L 395.1875 36.746094 L 396.660156 36.902344 Z M 384.109375 109.6875 C 384.46875 109.726562 384.789062 109.46875 384.824219 109.109375 L 385.054688 106.96875 L 383.761719 106.832031 L 383.53125 108.972656 C 383.492188 109.328125 383.75 109.652344 384.109375 109.6875 Z M 342.832031 42.390625 C 342.832031 42.683594 343.066406 42.921875 343.359375 42.921875 L 353.964844 42.921875 C 354.253906 42.921875 354.492188 42.683594 354.492188 42.390625 C 354.492188 42.101562 354.253906 41.863281 353.964844 41.863281 L 343.359375 41.863281 C 343.066406 41.863281 342.832031 42.101562 342.832031 42.390625 Z M 316.550781 45.003906 C 316.257812 45.003906 316.019531 45.242188 316.019531 45.53125 C 316.019531 45.824219 316.257812 46.0625 316.550781 46.0625 L 332.085938 46.0625 C 332.378906 46.0625 332.613281 45.824219 332.613281 45.53125 C 332.613281 45.242188 332.378906 45.003906 332.085938 45.003906 Z M 341.667969 42.390625 C 341.667969 42.101562 341.429688 41.863281 341.140625 41.863281 L 323.914062 41.863281 C 323.621094 41.863281 323.386719 42.101562 323.386719 42.390625 C 323.386719 42.683594 323.621094 42.921875 323.914062 42.921875 L 341.140625 42.921875 C 341.429688 42.921875 341.667969 42.683594 341.667969 42.390625 Z M 334.304688 46.0625 L 346.320312 46.0625 C 346.609375 46.0625 346.847656 45.824219 346.847656 45.53125 C 346.847656 45.242188 346.609375 45.003906 346.320312 45.003906 L 334.304688 45.003906 C 334.011719 45.003906 333.777344 45.242188 333.777344 45.53125 C 333.777344 45.824219 334.011719 46.0625 334.304688 46.0625 Z M 333.574219 85.316406 C 333.28125 85.316406 333.046875 85.550781 333.046875 85.84375 C 333.046875 86.136719 333.28125 86.371094 333.574219 86.371094 L 341.8125 86.371094 C 342.101562 86.371094 342.339844 86.136719 342.339844 85.84375 C 342.339844 85.550781 342.101562 85.316406 341.8125 85.316406 Z M 332.085938 99.578125 L 342.65625 99.578125 C 342.949219 99.578125 343.183594 99.34375 343.183594 99.050781 C 343.183594 98.757812 342.949219 98.523438 342.65625 98.523438 L 332.085938 98.523438 C 331.792969 98.523438 331.558594 98.757812 331.558594 99.050781 C 331.558594 99.34375 331.792969 99.578125 332.085938 99.578125 Z M 118.984375 277.84375 L 124.164062 277.84375 L 124.164062 276.785156 L 118.984375 276.785156 Z M 127.546875 274.230469 L 118.984375 274.230469 L 118.984375 275.289062 L 127.546875 275.289062 Z M 144.664062 202.734375 L 131.5625 202.734375 L 131.5625 203.789062 L 144.664062 203.789062 Z M 130.117188 275.289062 L 135.015625 275.289062 L 135.015625 274.230469 L 130.117188 274.230469 Z M 83.898438 281.046875 C 83.898438 279.179688 82.382812 277.664062 80.515625 277.664062 C 78.648438 277.664062 77.132812 279.179688 77.132812 281.046875 C 77.132812 282.914062 78.648438 284.429688 80.515625 284.429688 C 82.382812 284.429688 83.898438 282.914062 83.898438 281.046875 Z M 130.117188 277.84375 L 133.078125 277.84375 L 133.078125 276.785156 L 130.117188 276.785156 Z M 52.933594 110.9375 C 52.933594 117.316406 58.105469 122.488281 64.488281 122.488281 C 70.867188 122.488281 76.039062 117.316406 76.039062 110.9375 C 76.039062 104.558594 70.867188 99.386719 64.488281 99.386719 C 58.105469 99.386719 52.933594 104.558594 52.933594 110.9375 Z M 49.800781 110.9375 C 49.800781 102.824219 56.375 96.25 64.488281 96.25 C 72.597656 96.25 79.175781 102.824219 79.175781 110.9375 C 79.175781 119.050781 72.597656 125.625 64.488281 125.625 C 56.375 125.625 49.800781 119.050781 49.800781 110.9375 Z M 59.902344 202.734375 L 59.902344 203.789062 L 118.316406 203.789062 L 118.316406 202.734375 Z M 5.242188 161.328125 L 14.359375 167.492188 C 16.566406 168.984375 19.550781 168.535156 21.222656 166.460938 L 42.78125 139.679688 C 57.757812 147.597656 67.140625 143.429688 67.140625 143.429688 L 72.855469 144.742188 L 82.757812 147.019531 L 83.984375 145.179688 L 84.632812 144.210938 L 77.761719 140.917969 C 90.097656 133.257812 91.949219 122.980469 91.949219 122.980469 L 91.945312 122.976562 L 90.253906 122.191406 C 90.253906 122.191406 81.820312 137.964844 64.488281 137.964844 C 47.152344 137.964844 37.003906 114.851562 37.003906 114.851562 L 34.503906 114.851562 L 32.945312 128.125 L 5.148438 147.800781 L 4.675781 148.1875 C 0.402344 151.644531 0.6875 158.25 5.242188 161.328125 Z M 37.785156 202.734375 L 0 202.734375 L 0 203.789062 L 37.785156 203.789062 Z M 165.765625 372.964844 C 167.234375 372.070312 168.699219 371.164062 170.128906 370.203125 C 170.222656 370.136719 170.261719 370.007812 170.210938 369.898438 C 170.152344 369.78125 170.007812 369.730469 169.890625 369.785156 C 168.335938 370.53125 166.816406 371.339844 165.300781 372.152344 C 163.785156 372.96875 162.296875 373.828125 160.796875 374.664062 C 159.316406 375.546875 157.824219 376.398438 156.359375 377.300781 C 154.992188 378.140625 153.632812 378.992188 152.296875 379.886719 C 152.199219 379.953125 152.101562 380.011719 152.003906 380.078125 C 151.921875 380.132812 151.890625 380.242188 151.9375 380.332031 C 151.984375 380.433594 152.105469 380.476562 152.207031 380.429688 C 152.289062 380.386719 152.371094 380.34375 152.453125 380.304688 C 153.925781 379.59375 155.367188 378.839844 156.800781 378.074219 C 158.320312 377.265625 159.8125 376.410156 161.320312 375.582031 C 162.800781 374.710938 164.296875 373.859375 165.765625 372.964844 Z M 163.5625 362.207031 C 163.945312 362.496094 164.371094 362.734375 164.839844 362.855469 C 164.921875 362.875 165.007812 362.855469 165.070312 362.789062 C 165.171875 362.695312 165.171875 362.539062 165.078125 362.441406 L 165.074219 362.4375 C 164.765625 362.121094 164.464844 361.832031 164.195312 361.519531 C 163.929688 361.203125 163.667969 360.894531 163.4375 360.558594 C 163.195312 360.230469 162.988281 359.878906 162.78125 359.523438 C 162.574219 359.160156 162.402344 358.78125 162.207031 358.378906 C 162.175781 358.316406 162.113281 358.265625 162.039062 358.257812 C 161.925781 358.246094 161.820312 358.328125 161.808594 358.441406 C 161.753906 358.917969 161.820312 359.398438 161.953125 359.859375 C 162.078125 360.324219 162.304688 360.761719 162.570312 361.160156 C 162.847656 361.558594 163.171875 361.921875 163.5625 362.207031 Z M 41.972656 339.984375 L 8.050781 339.984375 C 8.019531 340.335938 7.992188 340.691406 7.960938 341.042969 L 42.058594 341.042969 C 42.003906 340.675781 41.976562 340.320312 41.972656 339.984375 Z M 150.65625 377.859375 C 149.800781 377.136719 149.160156 376.292969 148.683594 375.425781 L 136.898438 377.859375 L 116.164062 382.140625 C 113.253906 376.933594 107.546875 373.207031 101.691406 373.207031 C 96.042969 373.207031 91.890625 376.671875 90.835938 381.59375 L 48.054688 372.167969 C 48.40625 367.464844 49.417969 363.015625 51.003906 358.898438 C 50.457031 358.945312 49.871094 358.976562 49.195312 358.976562 C 47.574219 358.972656 41.597656 353.070312 39.617188 349.328125 C 34.714844 360.085938 33.148438 372.929688 35.875 386.734375 C 36.328125 389.019531 36.890625 391.273438 37.546875 393.5 L 50.746094 393.5 C 50.035156 391.28125 49.433594 389.027344 48.980469 386.734375 C 48.289062 383.226562 47.953125 379.796875 47.917969 376.46875 L 90.710938 385.894531 C 90.75 386.175781 90.777344 386.449219 90.835938 386.734375 C 91.324219 389.203125 92.449219 391.507812 93.996094 393.5 L 117.402344 393.5 C 118.164062 391.507812 118.378906 389.203125 117.890625 386.734375 C 117.851562 386.53125 117.789062 386.332031 117.742188 386.128906 L 148.140625 379.855469 L 151.824219 379.09375 C 151.539062 378.695312 151.167969 378.289062 150.65625 377.859375 Z M 358.925781 331.394531 C 360.136719 330.5 361.300781 329.535156 362.347656 328.453125 C 363.394531 327.371094 364.347656 326.207031 365.152344 324.941406 C 365.203125 324.859375 365.191406 324.75 365.117188 324.683594 C 365.03125 324.605469 364.90625 324.613281 364.828125 324.695312 C 363.835938 325.785156 362.8125 326.835938 361.726562 327.8125 C 360.640625 328.78125 359.519531 329.714844 358.316406 330.535156 C 357.140625 331.394531 355.890625 332.148438 354.613281 332.847656 C 354.609375 332.847656 354.605469 332.847656 354.605469 332.851562 C 353.429688 333.492188 352.214844 334.058594 350.972656 334.59375 L 353.921875 330.480469 L 359.765625 322.078125 C 361.695312 319.269531 363.597656 316.433594 365.46875 313.582031 C 365.539062 313.476562 365.515625 313.335938 365.414062 313.257812 C 365.308594 313.179688 365.15625 313.199219 365.078125 313.304688 C 363.023438 316.03125 360.996094 318.773438 359 321.539062 L 353.058594 329.871094 L 347.234375 338.285156 C 345.304688 341.097656 343.410156 343.933594 341.542969 346.789062 C 341.484375 346.878906 341.503906 346.996094 341.589844 347.0625 C 341.679688 347.128906 341.804688 347.109375 341.871094 347.023438 C 343.929688 344.300781 345.964844 341.5625 347.964844 338.796875 L 350.59375 335.128906 C 350.648438 335.179688 350.71875 335.210938 350.800781 335.195312 C 351.710938 334.976562 352.605469 334.683594 353.480469 334.34375 C 354.003906 334.136719 354.523438 333.917969 355.035156 333.679688 C 356.398438 333.039062 357.6875 332.253906 358.925781 331.394531 Z M 277.097656 238.566406 C 277.230469 238.546875 277.320312 238.425781 277.304688 238.292969 C 277.09375 236.792969 276.710938 235.320312 276.226562 233.878906 C 275.734375 232.441406 275.105469 231.050781 274.40625 229.699219 C 273.664062 228.375 272.859375 227.078125 271.925781 225.878906 C 270.996094 224.675781 269.980469 223.546875 268.847656 222.539062 C 268.773438 222.476562 268.664062 222.472656 268.585938 222.53125 C 268.5 222.601562 268.484375 222.730469 268.554688 222.816406 C 269.484375 223.984375 270.382812 225.167969 271.203125 226.398438 C 272.023438 227.628906 272.804688 228.882812 273.476562 230.199219 C 274.1875 231.492188 274.792969 232.839844 275.347656 234.207031 C 275.910156 235.574219 276.386719 236.976562 276.835938 238.398438 C 276.871094 238.511719 276.980469 238.582031 277.097656 238.566406 Z M 272.121094 179.9375 C 272.234375 179.972656 272.355469 179.921875 272.40625 179.8125 C 272.464844 179.695312 272.414062 179.554688 272.296875 179.496094 L 272.273438 179.484375 C 270.871094 178.8125 269.570312 177.722656 269.082031 176.335938 C 268.523438 174.945312 269.183594 173.507812 270.199219 172.304688 C 270.683594 171.679688 271.234375 171.089844 271.789062 170.476562 C 272.066406 170.167969 272.347656 169.859375 272.613281 169.523438 C 272.894531 169.207031 273.144531 168.753906 273.296875 168.339844 C 273.878906 166.621094 273.703125 164.898438 273.3125 163.269531 C 273.289062 163.175781 273.199219 163.105469 273.097656 163.117188 C 272.984375 163.128906 272.902344 163.226562 272.914062 163.335938 L 272.914062 163.351562 C 272.988281 164.148438 273.023438 164.960938 272.957031 165.753906 C 272.914062 166.546875 272.765625 167.324219 272.472656 168.003906 C 272.183594 168.652344 271.628906 169.199219 271.066406 169.804688 C 270.503906 170.390625 269.917969 170.984375 269.375 171.644531 C 268.851562 172.316406 268.351562 173.054688 268.082031 173.941406 C 267.804688 174.808594 267.820312 175.855469 268.210938 176.671875 C 268.945312 178.378906 270.5 179.441406 272.121094 179.9375 Z M 266.289062 222.058594 C 265.527344 223.5 264.773438 224.9375 263.976562 226.351562 C 263.179688 227.761719 262.371094 229.171875 261.492188 230.53125 C 261.070312 231.222656 260.636719 231.90625 260.183594 232.578125 C 259.960938 232.925781 259.753906 233.222656 259.515625 233.410156 C 259.269531 233.585938 259.136719 233.621094 258.894531 233.507812 C 258.65625 233.382812 258.363281 233.0625 258.097656 232.777344 C 257.832031 232.488281 257.585938 232.179688 257.347656 231.863281 C 256.863281 231.234375 256.464844 230.542969 256.105469 229.824219 C 256.0625 229.738281 255.960938 229.691406 255.863281 229.71875 C 255.757812 229.75 255.695312 229.863281 255.726562 229.96875 C 255.96875 230.769531 256.328125 231.535156 256.757812 232.261719 C 256.980469 232.621094 257.226562 232.964844 257.484375 233.300781 C 257.761719 233.621094 257.980469 233.960938 258.4375 234.273438 C 258.660156 234.421875 258.984375 234.523438 259.300781 234.496094 C 259.617188 234.472656 259.890625 234.328125 260.097656 234.171875 C 260.511719 233.859375 260.769531 233.464844 261 233.140625 C 261.476562 232.464844 261.9375 231.78125 262.382812 231.09375 C 263.246094 229.691406 264.074219 228.261719 264.804688 226.789062 C 265.53125 225.3125 266.191406 223.800781 266.730469 222.246094 C 266.769531 222.136719 266.722656 222.011719 266.613281 221.957031 C 266.496094 221.894531 266.351562 221.941406 266.289062 222.058594 Z M 281.980469 347.175781 C 281.105469 347.007812 280.203125 346.988281 279.316406 347.101562 C 278.636719 347.191406 277.953125 347.363281 277.316406 347.648438 C 277.125 347.738281 276.933594 347.832031 276.75 347.941406 L 276.726562 347.953125 C 276.699219 347.972656 276.679688 348 276.65625 348.023438 C 276.566406 348.101562 276.5 348.199219 276.484375 348.324219 C 276.445312 348.605469 276.640625 348.863281 276.921875 348.902344 C 278.253906 349.078125 279.515625 349.621094 280.664062 350.34375 C 281.800781 351.089844 282.789062 352.070312 283.554688 353.234375 C 283.609375 353.316406 283.714844 353.351562 283.808594 353.308594 C 283.910156 353.265625 283.953125 353.144531 283.910156 353.042969 C 283.316406 351.707031 282.34375 350.53125 281.160156 349.640625 C 280.410156 349.058594 279.554688 348.621094 278.652344 348.308594 C 279.667969 348.027344 280.757812 347.957031 281.820312 348.121094 C 283.390625 348.339844 284.925781 349 286.078125 350.136719 C 286.160156 350.214844 286.296875 350.230469 286.390625 350.160156 C 286.5 350.082031 286.523438 349.933594 286.445312 349.824219 C 285.394531 348.390625 283.707031 347.519531 281.980469 347.175781 Z M 408.589844 249.226562 C 408.601562 249.117188 408.527344 249.015625 408.417969 249.003906 C 408.304688 248.988281 408.203125 249.066406 408.191406 249.175781 L 405.800781 266.953125 L 398.921875 320.332031 L 394.539062 355.945312 L 392.351562 373.75 L 390.261719 391.566406 C 390.246094 391.695312 390.335938 391.816406 390.46875 391.832031 C 390.597656 391.851562 390.71875 391.757812 390.734375 391.625 L 393.117188 373.847656 L 395.402344 356.050781 L 399.96875 320.464844 L 404.328125 284.851562 L 406.507812 267.042969 Z M 397.019531 225.574219 C 398.433594 226.9375 399.570312 228.597656 400.195312 230.453125 C 400.503906 231.351562 400.609375 232.320312 400.675781 233.316406 C 400.75 234.308594 400.757812 235.308594 400.769531 236.3125 C 400.675781 244.339844 399.929688 252.386719 399.15625 260.40625 C 398.398438 268.433594 397.484375 276.449219 396.558594 284.460938 L 393.679688 308.492188 C 393.664062 308.621094 393.753906 308.742188 393.882812 308.761719 C 394.011719 308.78125 394.136719 308.691406 394.152344 308.558594 C 395.367188 300.578125 396.476562 292.585938 397.488281 284.574219 C 398.5 276.566406 399.410156 268.546875 400.207031 260.507812 C 400.582031 256.488281 400.925781 252.464844 401.203125 248.433594 C 401.46875 244.402344 401.703125 240.363281 401.660156 236.304688 C 401.632812 235.289062 401.609375 234.273438 401.519531 233.253906 C 401.4375 232.242188 401.3125 231.1875 400.949219 230.179688 C 400.253906 228.210938 399.019531 226.460938 397.507812 225.058594 C 395.992188 223.652344 394.21875 222.566406 392.351562 221.742188 C 390.480469 220.921875 388.535156 220.308594 386.511719 219.972656 C 386.40625 219.953125 386.300781 220.023438 386.28125 220.132812 C 386.261719 220.242188 386.332031 220.347656 386.441406 220.367188 L 386.453125 220.371094 C 388.402344 220.746094 390.316406 221.402344 392.117188 222.25 C 393.917969 223.101562 395.609375 224.195312 397.019531 225.574219 Z M 414.558594 252.628906 L 401.132812 393.5 L 382.707031 393.5 C 383.6875 386.882812 384.636719 380.265625 385.546875 373.636719 L 388.222656 353.722656 L 390.757812 333.789062 C 391.585938 327.144531 392.375 320.492188 393.132812 313.835938 C 393.144531 313.730469 393.070312 313.628906 392.960938 313.613281 C 392.851562 313.597656 392.746094 313.675781 392.730469 313.785156 C 391.746094 320.410156 390.789062 327.039062 389.871094 333.675781 L 387.175781 353.585938 L 384.617188 373.515625 C 383.785156 380.160156 382.988281 386.8125 382.230469 393.46875 C 382.226562 393.480469 382.238281 393.488281 382.238281 393.5 L 353.492188 393.5 C 353.492188 393.492188 368.152344 333.054688 375.148438 295.496094 C 377.179688 288.609375 378.882812 280.320312 378.667969 272.097656 C 378.800781 270.253906 378.816406 268.789062 378.691406 267.800781 C 378.390625 265.417969 377.820312 263.160156 377.03125 261.019531 C 374.644531 252.863281 369.40625 245.515625 359.535156 240.625 C 345.527344 231.15625 329.058594 227.359375 329.058594 227.359375 C 329.058594 227.359375 328.800781 222.101562 324.257812 216.789062 L 381.976562 216.789062 C 401.28125 216.789062 416.390625 233.410156 414.558594 252.628906 Z M 292.292969 233.894531 C 292.703125 234.734375 293.085938 235.613281 293.75 236.421875 C 294.40625 237.25 295.449219 237.757812 296.433594 237.933594 C 297.4375 238.128906 298.410156 238.097656 299.367188 238.046875 C 300.332031 237.988281 301.285156 237.859375 302.226562 237.671875 C 305.992188 236.867188 309.480469 235.359375 312.875 233.761719 C 316.296875 232.191406 319.699219 230.585938 323.085938 228.949219 C 323.199219 228.898438 323.25 228.761719 323.203125 228.644531 C 323.152344 228.523438 323.011719 228.464844 322.890625 228.515625 L 322.882812 228.519531 C 319.40625 229.945312 315.953125 231.402344 312.515625 232.898438 C 309.089844 234.414062 305.628906 235.90625 302.019531 236.640625 C 301.121094 236.828125 300.210938 236.964844 299.300781 237.027344 C 298.390625 237.089844 297.46875 237.117188 296.621094 236.960938 C 295.765625 236.808594 295.015625 236.449219 294.480469 235.800781 C 293.9375 235.160156 293.519531 234.316406 293.085938 233.484375 C 291.363281 230.152344 289.605469 226.835938 287.816406 223.53125 L 287.8125 223.527344 C 287.761719 223.433594 287.648438 223.394531 287.550781 223.4375 C 287.449219 223.484375 287.40625 223.605469 287.453125 223.707031 C 287.945312 224.773438 288.464844 225.832031 288.96875 226.894531 C 288.921875 226.910156 288.882812 226.933594 288.84375 226.96875 L 288.8125 226.996094 C 287.484375 228.191406 286.257812 229.496094 285.113281 230.871094 C 283.980469 232.253906 282.929688 233.703125 282.027344 235.253906 C 281.972656 235.347656 281.988281 235.476562 282.078125 235.554688 C 282.175781 235.640625 282.328125 235.632812 282.417969 235.53125 L 289.097656 227.929688 C 289.378906 228.289062 289.667969 228.640625 289.960938 228.988281 C 290.738281 230.625 291.5 232.269531 292.292969 233.894531 Z M 349.328125 241.769531 C 349.460938 241.78125 349.574219 241.683594 349.585938 241.554688 C 349.597656 241.421875 349.503906 241.308594 349.371094 241.292969 C 345.042969 240.878906 340.652344 241.683594 336.628906 243.300781 C 332.609375 244.953125 328.921875 247.363281 325.757812 250.347656 C 322.625 253.363281 319.988281 256.796875 317.46875 260.289062 C 315.960938 262.40625 314.523438 264.570312 313.136719 266.765625 C 312.222656 268.210938 311.328125 269.671875 310.46875 271.148438 C 310.109375 271.78125 309.761719 272.417969 309.410156 273.058594 C 308.574219 272.746094 307.671875 272.570312 306.726562 272.570312 C 302.433594 272.570312 298.953125 276.050781 298.953125 280.34375 C 298.953125 283.097656 300.390625 285.511719 302.550781 286.890625 C 301.425781 289.375 300.332031 291.875 299.265625 294.382812 L 294.300781 306.265625 C 292.6875 310.242188 291.066406 314.214844 289.398438 318.167969 C 289.355469 318.269531 289.398438 318.386719 289.5 318.429688 C 289.5 318.433594 289.503906 318.429688 289.503906 318.429688 C 289.582031 318.464844 289.660156 318.433594 289.71875 318.375 C 289.734375 318.359375 289.757812 318.351562 289.765625 318.328125 C 291.53125 314.414062 293.246094 310.480469 294.957031 306.542969 L 300.027344 294.710938 C 303.453125 286.851562 307.09375 279.074219 311.382812 271.675781 C 313.515625 267.972656 315.800781 264.347656 318.253906 260.847656 C 320.726562 257.367188 323.324219 253.941406 326.359375 250.976562 C 329.410156 248.046875 333.019531 245.65625 336.921875 244.011719 C 340.8125 242.347656 345.082031 241.464844 349.328125 241.769531 Z M 175.355469 382.878906 C 174.242188 383.457031 173.132812 384.027344 172 384.535156 C 170.863281 385.039062 169.722656 385.519531 168.554688 385.933594 C 167.386719 386.359375 166.199219 386.71875 165.003906 387.054688 C 164.023438 387.324219 163.027344 387.550781 162.027344 387.769531 C 161.324219 387.804688 160.625 387.828125 159.941406 387.835938 C 160.277344 389.746094 160.511719 391.636719 160.652344 393.5 L 173.847656 393.5 C 173.710938 392.097656 173.511719 390.679688 173.28125 389.25 C 171.621094 388.941406 170.222656 388.574219 169.398438 388.144531 C 168.699219 387.78125 167.710938 387.644531 166.574219 387.613281 C 167.359375 387.417969 168.140625 387.195312 168.90625 386.929688 C 170.113281 386.492188 171.292969 385.988281 172.414062 385.371094 C 173.539062 384.765625 174.625 384.078125 175.617188 383.28125 C 175.707031 383.207031 175.734375 383.085938 175.679688 382.980469 C 175.617188 382.863281 175.472656 382.816406 175.355469 382.878906 Z M 171.8125 340.695312 C 171.246094 340.171875 170.617188 339.71875 169.964844 339.304688 C 169.308594 338.902344 168.621094 338.539062 167.902344 338.265625 C 167.496094 338.105469 167.082031 337.972656 166.664062 337.855469 C 166.34375 337.769531 166.015625 337.6875 165.683594 337.636719 C 165.601562 337.625 165.515625 337.664062 165.472656 337.742188 C 165.429688 337.824219 165.457031 337.914062 165.523438 337.976562 C 165.535156 337.992188 165.539062 338.011719 165.554688 338.019531 C 166.21875 338.375 166.878906 338.710938 167.519531 339.070312 C 168.15625 339.4375 168.789062 339.800781 169.40625 340.199219 C 170.023438 340.585938 170.625 341.003906 171.226562 341.421875 C 171.828125 341.847656 172.40625 342.300781 173.015625 342.742188 C 173.097656 342.800781 173.210938 342.804688 173.296875 342.746094 C 173.40625 342.667969 173.433594 342.515625 173.359375 342.40625 C 172.914062 341.773438 172.382812 341.214844 171.8125 340.695312 Z M 172.46875 373.5625 L 172.460938 373.558594 C 172.417969 373.53125 172.363281 373.515625 172.308594 373.523438 C 172.1875 373.542969 172.105469 373.65625 172.125 373.773438 C 172.175781 374.101562 172.308594 374.390625 172.472656 374.664062 C 172.632812 374.945312 172.851562 375.179688 173.085938 375.394531 C 173.324219 375.601562 173.585938 375.789062 173.882812 375.914062 C 174.175781 376.042969 174.480469 376.140625 174.8125 376.148438 C 174.875 376.148438 174.9375 376.125 174.988281 376.082031 C 175.097656 375.984375 175.105469 375.820312 175.007812 375.714844 L 175 375.707031 C 174.796875 375.484375 174.585938 375.304688 174.382812 375.125 L 173.773438 374.597656 L 173.152344 374.085938 C 172.9375 373.914062 172.726562 373.734375 172.46875 373.5625 Z M 106.011719 167.855469 C 105.769531 168.210938 105.53125 168.5625 105.285156 168.910156 L 170.007812 168.910156 L 170.007812 328.679688 C 172.011719 323.386719 174.828125 316.242188 178.257812 308.351562 C 178.257812 308.355469 178.261719 308.355469 178.261719 308.359375 C 176.300781 306.390625 175.386719 305.144531 175.386719 305.144531 C 175.386719 305.144531 177.039062 301.742188 179.578125 296.65625 C 179.917969 295.980469 180.269531 295.28125 180.636719 294.546875 L 180.636719 167.855469 Z M 266.21875 108.035156 L 237.882812 108.035156 L 237.882812 107.71875 L 215.480469 107.71875 L 215.480469 108.035156 L 135.820312 108.035156 C 135.601562 108.386719 135.386719 108.738281 135.171875 109.09375 L 215.480469 109.09375 L 215.480469 243.199219 C 220.785156 239.980469 226.199219 237.652344 229.722656 236.292969 C 232.417969 234.519531 235.195312 233.117188 237.882812 232 L 237.882812 109.09375 L 266.859375 109.09375 C 266.648438 108.738281 266.433594 108.386719 266.21875 108.035156 Z M 189.675781 365.417969 C 190.105469 366.222656 190.476562 367.054688 190.824219 367.898438 C 191.167969 368.746094 191.457031 369.621094 191.738281 370.507812 C 191.773438 370.609375 191.871094 370.679688 191.980469 370.675781 C 192.113281 370.671875 192.21875 370.558594 192.210938 370.425781 C 192.167969 369.464844 191.980469 368.519531 191.710938 367.59375 C 191.441406 366.667969 191.058594 365.777344 190.609375 364.921875 C 190.144531 364.078125 189.613281 363.265625 188.988281 362.53125 C 188.371094 361.792969 187.6875 361.113281 186.910156 360.550781 C 186.886719 360.53125 186.851562 360.523438 186.820312 360.519531 C 186.765625 360.511719 186.710938 360.519531 186.664062 360.554688 C 186.648438 360.566406 186.648438 360.585938 186.640625 360.601562 C 186.585938 360.671875 186.574219 360.765625 186.632812 360.839844 C 187.210938 361.574219 187.769531 362.304688 188.277344 363.066406 C 188.777344 363.835938 189.257812 364.609375 189.675781 365.417969 Z M 212.964844 260.519531 C 212.832031 260.507812 212.714844 260.605469 212.703125 260.738281 C 212.4375 263.457031 212.136719 266.175781 211.785156 268.886719 L 210.746094 277.023438 L 208.617188 293.300781 C 208.308594 295.898438 208 298.496094 207.710938 301.097656 C 207.421875 299.941406 207.160156 298.773438 206.957031 297.597656 C 206.640625 295.785156 206.375 293.960938 206.195312 292.121094 C 205.972656 290.289062 205.847656 288.449219 205.742188 286.605469 C 205.640625 284.761719 205.601562 282.914062 205.617188 281.0625 C 205.617188 280.964844 205.546875 280.875 205.445312 280.859375 C 205.335938 280.84375 205.230469 280.921875 205.214844 281.03125 C 204.9375 282.882812 204.851562 284.761719 204.851562 286.628906 C 204.84375 288.503906 204.980469 290.371094 205.148438 292.234375 C 205.363281 294.09375 205.628906 295.949219 206.039062 297.78125 C 206.414062 299.425781 206.878906 301.0625 207.546875 302.625 C 207.296875 304.960938 207.0625 307.296875 206.871094 309.640625 C 206.421875 314.984375 206.128906 320.347656 206.246094 325.71875 C 206.25 325.835938 206.246094 325.953125 206.25 326.070312 C 206.253906 326.179688 206.339844 326.269531 206.449219 326.269531 C 206.5625 326.269531 206.652344 326.179688 206.652344 326.066406 C 206.65625 325.789062 206.671875 325.511719 206.679688 325.230469 C 206.738281 322.78125 206.847656 320.332031 207.039062 317.886719 C 207.230469 315.160156 207.476562 312.441406 207.757812 309.722656 C 208.320312 304.285156 208.957031 298.855469 209.664062 293.433594 L 211.675781 277.136719 C 212.308594 271.699219 212.875 266.246094 213.179688 260.773438 C 213.1875 260.644531 213.089844 260.53125 212.964844 260.519531 Z M 197.984375 388.878906 L 196.242188 389.367188 L 194.519531 389.820312 L 194.328125 389.867188 C 195.03125 389.386719 195.667969 388.816406 196.164062 388.132812 C 196.214844 388.0625 196.214844 387.964844 196.160156 387.890625 C 196.09375 387.800781 195.964844 387.78125 195.875 387.847656 C 195.21875 388.328125 194.550781 388.765625 193.847656 389.121094 C 193.144531 389.472656 192.421875 389.777344 191.667969 389.996094 C 190.921875 390.226562 190.152344 390.371094 189.371094 390.46875 C 188.589844 390.558594 187.796875 390.5625 186.988281 390.527344 C 186.886719 390.523438 186.785156 390.585938 186.746094 390.6875 C 186.746094 390.691406 186.75 390.695312 186.746094 390.699219 C 186.738281 390.738281 186.746094 390.773438 186.753906 390.808594 C 186.769531 390.890625 186.808594 390.96875 186.894531 390.996094 C 187.699219 391.289062 188.5625 391.402344 189.425781 391.398438 C 190.054688 391.402344 190.683594 391.300781 191.300781 391.160156 C 191.851562 391.226562 192.398438 391.222656 192.9375 391.175781 C 193.277344 391.144531 193.613281 391.09375 193.945312 391.03125 C 194.226562 390.976562 194.507812 390.914062 194.785156 390.84375 C 195.386719 390.675781 195.984375 390.476562 196.550781 390.207031 C 197.121094 389.941406 197.675781 389.636719 198.167969 389.242188 C 198.230469 389.191406 198.261719 389.105469 198.238281 389.023438 C 198.207031 388.914062 198.09375 388.851562 197.984375 388.878906 Z M 193.957031 127.253906 L 142.925781 127.253906 L 134.394531 110.929688 L 134.242188 110.644531 C 133.390625 112.09375 132.566406 113.558594 131.769531 115.035156 L 131.925781 115.335938 L 138.15625 127.253906 L 125.757812 127.253906 C 122.019531 135.453125 118.667969 143.722656 115.066406 151.421875 L 193.957031 151.421875 C 197.847656 151.421875 201.003906 148.265625 201.003906 144.375 L 201.003906 134.300781 C 201.003906 130.40625 197.847656 127.253906 193.957031 127.253906 Z M 271.8125 161.515625 C 271.9375 161.460938 271.992188 161.320312 271.9375 161.195312 C 271.707031 160.671875 271.328125 160.171875 270.792969 159.851562 C 270.269531 159.523438 269.652344 159.378906 269.0625 159.355469 C 268.464844 159.34375 267.890625 159.449219 267.359375 159.644531 C 266.824219 159.839844 266.324219 160.082031 265.882812 160.449219 C 265.824219 160.5 265.796875 160.574219 265.8125 160.652344 C 265.839844 160.765625 265.949219 160.835938 266.058594 160.808594 L 266.074219 160.808594 C 267.089844 160.585938 268.089844 160.371094 269.027344 160.410156 C 269.496094 160.425781 269.933594 160.523438 270.359375 160.675781 C 270.78125 160.839844 271.140625 161.136719 271.539062 161.460938 L 271.5625 161.480469 C 271.632812 161.535156 271.726562 161.554688 271.8125 161.515625 Z M 269.78125 163 C 268.742188 163 267.898438 164.09375 267.898438 165.441406 C 267.898438 166.792969 268.742188 167.886719 269.78125 167.886719 C 270.820312 167.886719 271.660156 166.792969 271.660156 165.441406 C 271.660156 164.09375 270.820312 163 269.78125 163 Z M 314.773438 165.644531 L 314.796875 165.640625 C 314.878906 165.621094 314.941406 165.550781 314.949219 165.464844 C 314.964844 165.355469 314.882812 165.253906 314.773438 165.242188 C 313.878906 165.140625 313.078125 165.648438 312.480469 166.183594 C 311.863281 166.730469 311.390625 167.390625 310.976562 168.070312 C 310.578125 168.757812 310.242188 169.476562 310 170.230469 C 309.761719 170.984375 309.558594 171.761719 309.597656 172.59375 C 309.601562 172.695312 309.667969 172.785156 309.769531 172.816406 C 309.898438 172.851562 310.03125 172.777344 310.070312 172.652344 L 310.074219 172.628906 C 310.273438 171.9375 310.5625 171.246094 310.871094 170.574219 C 311.191406 169.902344 311.515625 169.238281 311.886719 168.601562 C 311.917969 168.546875 311.957031 168.492188 311.988281 168.4375 C 312.21875 168.492188 312.394531 168.644531 312.507812 168.839844 C 312.644531 169.085938 312.773438 169.4375 312.859375 169.773438 C 312.953125 170.113281 313.007812 170.464844 313.050781 170.820312 C 313.09375 171.183594 313.089844 171.546875 313.09375 171.945312 L 313.09375 171.960938 C 313.09375 172.039062 313.132812 172.117188 313.203125 172.160156 C 313.316406 172.238281 313.46875 172.210938 313.546875 172.097656 C 313.796875 171.726562 313.933594 171.285156 313.984375 170.839844 C 314.050781 170.390625 313.996094 169.929688 313.875 169.488281 C 313.734375 169.058594 313.570312 168.632812 313.179688 168.257812 C 312.972656 168.039062 312.65625 167.898438 312.34375 167.875 C 312.585938 167.503906 312.839844 167.144531 313.113281 166.8125 C 313.578125 166.273438 314.101562 165.804688 314.773438 165.644531 Z M 261.109375 139.304688 C 261.007812 139.316406 260.933594 139.40625 260.933594 139.507812 C 260.933594 139.511719 260.929688 139.515625 260.929688 139.519531 C 260.9375 139.628906 261.035156 139.714844 261.144531 139.707031 L 261.15625 139.703125 C 262.933594 139.585938 264.730469 139.617188 266.511719 139.730469 C 267.402344 139.78125 268.292969 139.871094 269.183594 139.945312 C 270.066406 140.0625 270.953125 140.164062 271.835938 140.300781 C 275.363281 140.84375 278.835938 141.726562 282.160156 142.988281 C 283.855469 143.542969 285.453125 144.34375 287.078125 145.066406 C 288.632812 145.929688 290.234375 146.714844 291.699219 147.730469 C 294.539062 149.464844 297.058594 151.652344 299.503906 153.917969 C 296.46875 152.535156 292.949219 151.1875 288.898438 149.992188 C 274.523438 145.757812 266.117188 150.386719 266.113281 150.390625 C 266.113281 150.398438 265.328125 154.328125 267.546875 155.066406 C 269.765625 155.808594 272.304688 150.390625 272.304688 150.390625 C 272.304688 150.390625 276.742188 155.488281 282.238281 155.699219 C 287.734375 155.910156 287.925781 153.046875 287.925781 153.046875 C 287.925781 153.046875 290.96875 155.324219 293.96875 156.546875 C 296.71875 157.664062 298.632812 157.757812 299.96875 157.34375 C 300.238281 159.007812 300.753906 160.636719 301.71875 161.550781 C 304.257812 163.945312 305.101562 164.226562 305.101562 164.226562 L 303.1875 171.886719 L 306.90625 172.550781 C 306.761719 170.242188 307.160156 167.585938 308.976562 165.277344 C 308.976562 165.277344 310.421875 162.652344 312.898438 162.265625 C 310.824219 160.457031 307.414062 157.898438 302.386719 155.320312 C 301.757812 154.996094 301.101562 154.675781 300.417969 154.351562 C 300.460938 154.265625 300.464844 154.160156 300.394531 154.085938 L 298.496094 152.144531 C 297.863281 151.496094 297.246094 150.828125 296.53125 150.265625 L 294.433594 148.527344 C 293.738281 147.945312 292.953125 147.480469 292.214844 146.949219 C 290.757812 145.855469 289.109375 145.066406 287.53125 144.160156 C 285.878906 143.410156 284.253906 142.574219 282.527344 142 C 279.109375 140.765625 275.566406 139.859375 271.960938 139.417969 C 270.097656 139.175781 268.222656 139.046875 266.347656 139.027344 C 264.601562 139.011719 262.851562 139.09375 261.109375 139.304688 Z M 290.292969 161.457031 C 290.351562 161.503906 290.429688 161.515625 290.5 161.484375 C 290.605469 161.441406 290.652344 161.320312 290.609375 161.21875 C 290.386719 160.695312 290.011719 160.195312 289.484375 159.867188 C 288.96875 159.535156 288.355469 159.386719 287.761719 159.355469 C 287.167969 159.335938 286.589844 159.4375 286.054688 159.625 C 285.519531 159.8125 285.015625 160.050781 284.566406 160.417969 C 284.5 160.472656 284.464844 160.566406 284.484375 160.660156 C 284.515625 160.789062 284.644531 160.871094 284.773438 160.84375 L 284.792969 160.839844 C 285.292969 160.730469 285.796875 160.609375 286.285156 160.53125 C 286.777344 160.460938 287.261719 160.390625 287.730469 160.410156 C 288.199219 160.417969 288.640625 160.507812 289.070312 160.65625 C 289.503906 160.816406 289.867188 161.113281 290.273438 161.441406 Z M 271.046875 182.785156 C 271.054688 182.6875 270.992188 182.597656 270.894531 182.574219 C 270.785156 182.546875 270.675781 182.613281 270.648438 182.722656 C 270.445312 183.539062 270.292969 184.347656 270.277344 185.242188 C 270.296875 185.476562 270.285156 185.691406 270.429688 186 C 270.480469 186.078125 270.554688 186.183594 270.621094 186.234375 L 270.828125 186.355469 C 270.972656 186.429688 271.046875 186.445312 271.15625 186.492188 C 271.574219 186.644531 271.976562 186.761719 272.386719 186.867188 C 274.019531 187.289062 275.695312 187.46875 277.382812 187.53125 C 279.0625 187.535156 280.769531 187.394531 282.410156 186.933594 C 284.042969 186.472656 285.628906 185.703125 286.863281 184.527344 C 286.949219 184.445312 286.964844 184.3125 286.894531 184.214844 C 286.816406 184.105469 286.667969 184.082031 286.558594 184.15625 C 285.234375 185.078125 283.734375 185.679688 282.179688 186.027344 C 280.621094 186.375 279.011719 186.519531 277.398438 186.476562 C 275.785156 186.472656 274.164062 186.296875 272.582031 185.996094 C 272.1875 185.925781 271.789062 185.839844 271.421875 185.734375 C 271.230469 185.679688 271.054688 185.613281 271.097656 185.636719 C 271.046875 185.570312 271.011719 185.367188 270.988281 185.195312 C 270.902344 184.4375 270.984375 183.597656 271.046875 182.792969 Z M 315.714844 159.484375 C 315.210938 158.871094 314.667969 158.304688 314.101562 157.757812 C 313.457031 157.132812 312.769531 156.558594 312.058594 156.007812 C 311.335938 155.472656 310.597656 154.953125 309.804688 154.519531 C 309.011719 154.082031 308.1875 153.6875 307.308594 153.4375 C 307.210938 153.410156 307.097656 153.449219 307.039062 153.542969 C 306.96875 153.65625 307.003906 153.804688 307.117188 153.875 L 307.121094 153.878906 C 307.867188 154.34375 308.59375 154.8125 309.308594 155.3125 C 310.015625 155.816406 310.722656 156.324219 311.421875 156.851562 L 313.519531 158.4375 C 314.222656 158.96875 314.921875 159.507812 315.644531 160.023438 C 315.660156 160.03125 315.679688 160.03125 315.695312 160.039062 C 315.660156 161.097656 315.617188 162.019531 315.578125 162.769531 C 318.691406 164.507812 318.128906 171.445312 316.410156 174.882812 C 316.34375 174.882812 316.273438 174.902344 316.226562 174.960938 C 315.871094 175.363281 315.550781 175.769531 315.214844 176.160156 C 314.957031 176.457031 314.699219 176.75 314.441406 177.042969 C 314.359375 177.132812 314.28125 177.226562 314.199219 177.316406 C 313.863281 177.699219 313.5 178.0625 313.148438 178.4375 L 312.042969 179.5625 C 311.988281 179.617188 311.964844 179.703125 311.996094 179.78125 C 312.035156 179.886719 312.152344 179.941406 312.261719 179.902344 C 312.785156 179.714844 313.269531 179.4375 313.722656 179.121094 C 314.183594 178.808594 314.59375 178.433594 314.976562 178.03125 C 315.128906 177.867188 315.269531 177.695312 315.40625 177.519531 L 316.089844 198.550781 L 320.769531 198.570312 L 335.871094 198.683594 C 345.9375 198.742188 356.007812 198.78125 366.070312 198.710938 L 373.613281 198.660156 C 374.867188 198.636719 376.125 198.613281 377.375 198.566406 C 378 198.539062 378.625 198.511719 379.238281 198.460938 C 379.519531 198.433594 379.847656 198.40625 380.0625 198.355469 C 380.085938 198.296875 380.203125 198.09375 380.257812 197.890625 C 380.972656 195.574219 381.367188 193.042969 381.808594 190.585938 C 382.230469 188.109375 382.613281 185.625 382.972656 183.136719 C 383.6875 178.160156 384.328125 173.167969 384.847656 168.171875 C 384.980469 166.921875 385.105469 165.671875 385.195312 164.421875 C 385.296875 163.167969 385.304688 161.953125 384.96875 160.777344 C 384.316406 158.429688 382.519531 156.457031 380.402344 155.246094 L 380.386719 155.238281 C 380.34375 155.214844 380.316406 155.171875 380.300781 155.128906 C 379.933594 155.09375 379.5625 155.066406 379.1875 155.066406 L 315.78125 155.066406 C 315.78125 156.652344 315.753906 158.152344 315.714844 159.484375 Z M 276.222656 191.195312 C 276.507812 191.261719 276.796875 191.277344 277.085938 191.292969 C 277.371094 191.296875 277.660156 191.296875 277.949219 191.25 C 278.238281 191.210938 278.527344 191.160156 278.816406 191.039062 C 278.875 191.015625 278.925781 190.972656 278.953125 190.910156 C 279.015625 190.777344 278.957031 190.621094 278.824219 190.5625 C 278.539062 190.429688 278.253906 190.367188 277.96875 190.316406 C 277.679688 190.257812 277.394531 190.246094 277.105469 190.238281 C 276.816406 190.242188 276.53125 190.25 276.242188 190.300781 C 275.953125 190.347656 275.664062 190.40625 275.371094 190.527344 C 275.324219 190.550781 275.28125 190.585938 275.257812 190.636719 C 275.207031 190.746094 275.253906 190.878906 275.363281 190.933594 C 275.648438 191.066406 275.9375 191.136719 276.222656 191.195312 Z M 287.789062 163 C 286.753906 163 285.910156 164.09375 285.910156 165.441406 C 285.910156 166.792969 286.753906 167.886719 287.789062 167.886719 C 288.828125 167.886719 289.671875 166.792969 289.671875 165.441406 C 289.671875 164.09375 288.828125 163 287.789062 163 Z M 275.8125 203.4375 C 278.847656 204.09375 281.9375 204.65625 285.09375 204.683594 C 288.238281 204.730469 291.445312 204.207031 294.363281 202.871094 C 297.289062 201.503906 299.664062 199.210938 301.484375 196.644531 C 303.320312 194.070312 304.648438 191.226562 305.933594 188.402344 C 305.984375 188.289062 305.941406 188.15625 305.828125 188.09375 C 305.714844 188.03125 305.570312 188.074219 305.507812 188.191406 C 304.023438 190.914062 302.566406 193.652344 300.730469 196.09375 C 298.898438 198.519531 296.660156 200.675781 293.914062 201.917969 C 291.199219 203.222656 288.136719 203.730469 285.089844 203.792969 C 282.03125 203.851562 278.953125 203.472656 275.882812 203.039062 C 275.78125 203.027344 275.679688 203.09375 275.65625 203.199219 C 275.636719 203.304688 275.703125 203.414062 275.8125 203.4375 Z M 84.214844 346.039062 C 84.6875 345.980469 84.34375 346.019531 84.453125 346.007812 L 84.453125 345.855469 L 84.457031 345.703125 L 84.445312 345.394531 L 84.394531 344.777344 C 84.335938 344.371094 84.257812 343.964844 84.15625 343.5625 C 83.957031 342.757812 83.632812 341.984375 83.238281 341.253906 C 82.832031 340.53125 82.355469 339.84375 81.78125 339.242188 C 81.277344 338.699219 80.695312 338.234375 80.101562 337.828125 C 80.03125 337.78125 79.964844 337.722656 79.894531 337.679688 C 79.835938 337.640625 79.753906 337.640625 79.6875 337.679688 C 79.675781 337.683594 79.664062 337.683594 79.65625 337.6875 C 79.566406 337.757812 79.550781 337.886719 79.621094 337.976562 C 79.746094 338.132812 79.871094 338.277344 79.996094 338.429688 C 80.378906 338.890625 80.757812 339.335938 81.09375 339.8125 C 81.535156 340.441406 81.957031 341.082031 82.3125 341.761719 C 82.679688 342.429688 82.984375 343.128906 83.265625 343.84375 C 83.410156 344.203125 83.53125 344.570312 83.640625 344.941406 L 83.816406 345.496094 L 83.890625 345.78125 L 83.933594 345.921875 L 83.953125 345.992188 L 83.964844 346.03125 L 83.96875 346.046875 L 83.972656 346.058594 L 83.972656 346.0625 L 83.976562 346.0625 C 84.082031 346.050781 83.738281 346.09375 84.214844 346.039062 Z M 153.816406 350.1875 C 154.066406 350.449219 154.316406 350.710938 154.601562 350.9375 C 154.882812 351.171875 155.167969 351.398438 155.507812 351.578125 C 155.574219 351.613281 155.652344 351.617188 155.726562 351.585938 C 155.855469 351.527344 155.914062 351.378906 155.855469 351.25 C 155.703125 350.902344 155.496094 350.597656 155.285156 350.304688 C 155.078125 350 154.835938 349.734375 154.589844 349.46875 C 154.335938 349.210938 154.082031 348.953125 153.792969 348.730469 C 153.507812 348.5 153.21875 348.277344 152.875 348.101562 C 152.820312 348.074219 152.753906 348.070312 152.691406 348.09375 C 152.585938 348.140625 152.53125 348.269531 152.578125 348.375 C 152.730469 348.730469 152.933594 349.035156 153.140625 349.335938 C 153.34375 349.640625 153.578125 349.914062 153.816406 350.1875 Z M 56.019531 355.171875 C 54.699219 354.691406 53.371094 354.226562 52.082031 353.707031 C 50.824219 353.164062 49.457031 352.683594 48.605469 351.773438 C 47.660156 350.84375 46.855469 349.667969 46.035156 348.546875 L 43.609375 345.101562 C 43.554688 345.023438 43.449219 344.992188 43.359375 345.03125 C 43.257812 345.082031 43.214844 345.199219 43.261719 345.304688 C 43.859375 346.59375 44.550781 347.828125 45.292969 349.042969 C 46.046875 350.253906 46.84375 351.425781 47.859375 352.519531 C 48.398438 353.082031 49.101562 353.480469 49.75 353.785156 C 50.414062 354.089844 51.078125 354.367188 51.761719 354.585938 C 53.039062 355.003906 54.332031 355.339844 55.652344 355.582031 C 55.734375 355.597656 55.816406 355.621094 55.898438 355.632812 C 56.011719 355.652344 56.128906 355.585938 56.167969 355.476562 C 56.179688 355.433594 56.167969 355.398438 56.160156 355.355469 C 56.144531 355.273438 56.101562 355.199219 56.019531 355.171875 Z M 67.414062 342.496094 C 67.867188 342.464844 68.328125 342.5 68.789062 342.402344 C 69.714844 342.28125 70.628906 341.816406 71.324219 341.136719 C 72.015625 340.4375 72.433594 339.519531 72.582031 338.605469 C 72.734375 337.6875 72.714844 336.777344 72.46875 335.894531 C 72.445312 335.8125 72.371094 335.75 72.28125 335.746094 C 72.214844 335.742188 72.164062 335.777344 72.125 335.820312 C 72.097656 335.855469 72.074219 335.894531 72.070312 335.941406 L 72.070312 335.960938 C 72.019531 337.621094 71.664062 339.339844 70.578125 340.394531 C 70.039062 340.910156 69.363281 341.292969 68.585938 341.492188 C 68.210938 341.625 67.792969 341.640625 67.390625 341.726562 C 66.976562 341.765625 66.558594 341.773438 66.128906 341.824219 C 64.351562 341.484375 62.566406 341.117188 60.855469 340.601562 C 60.011719 340.324219 59.15625 340.050781 58.433594 339.632812 C 58.058594 339.425781 57.785156 339.195312 57.574219 338.902344 C 57.34375 338.558594 57.128906 338.160156 56.917969 337.769531 C 56.050781 336.195312 55.289062 334.535156 54.484375 332.90625 C 53.683594 331.269531 52.894531 329.625 52.058594 328 C 52.015625 327.910156 51.910156 327.867188 51.8125 327.898438 C 51.707031 327.9375 51.652344 328.050781 51.6875 328.15625 C 52.285156 329.890625 52.964844 331.585938 53.671875 333.273438 C 54.382812 334.960938 55.144531 336.621094 55.992188 338.269531 C 56.210938 338.679688 56.441406 339.082031 56.722656 339.492188 C 57.046875 339.9375 57.503906 340.289062 57.933594 340.511719 C 58.804688 340.980469 59.699219 341.28125 60.605469 341.503906 C 62.367188 341.9375 64.136719 342.1875 65.925781 342.289062 C 66.023438 343.160156 66.089844 344.039062 66.0625 344.894531 C 66.023438 345.800781 65.917969 346.703125 65.574219 347.476562 C 65.25 348.253906 64.679688 348.851562 63.921875 349.207031 C 63.207031 349.589844 62.332031 349.640625 61.449219 349.71875 C 60.5625 349.644531 59.667969 349.546875 58.796875 349.378906 C 57.875 349.226562 56.960938 349.015625 56.101562 348.703125 C 54.355469 348.15625 53.074219 346.84375 51.9375 345.367188 C 50.777344 343.914062 49.835938 342.273438 48.933594 340.617188 C 48.035156 338.953125 47.210938 337.242188 46.425781 335.515625 C 46.386719 335.425781 46.28125 335.371094 46.183594 335.398438 C 46.074219 335.429688 46.015625 335.542969 46.046875 335.652344 C 46.597656 337.496094 47.316406 339.277344 48.140625 341.019531 C 48.960938 342.761719 49.929688 344.445312 51.101562 346.011719 C 51.710938 346.78125 52.355469 347.53125 53.144531 348.164062 C 53.511719 348.5 53.976562 348.757812 54.40625 349.027344 C 54.859375 349.261719 55.332031 349.453125 55.808594 349.589844 C 57.519531 350.097656 59.253906 350.25 60.992188 350.21875 C 61.105469 350.21875 61.222656 350.21875 61.335938 350.214844 C 61.800781 350.28125 62.273438 350.359375 62.757812 350.355469 C 63.265625 350.308594 63.78125 350.28125 64.28125 350.070312 C 65.207031 349.765625 65.980469 349.015625 66.414062 348.136719 C 66.457031 348.054688 66.511719 347.972656 66.546875 347.886719 C 66.957031 346.898438 67.03125 345.859375 66.953125 344.875 C 66.886719 344.042969 66.726562 343.234375 66.460938 342.457031 C 66.449219 342.421875 66.433594 342.386719 66.421875 342.351562 C 66.4375 342.355469 66.457031 342.355469 66.472656 342.359375 C 66.785156 342.40625 67.097656 342.453125 67.414062 342.496094 Z M 385.503906 160.621094 C 385.890625 161.867188 385.902344 163.210938 385.824219 164.460938 C 385.761719 165.722656 385.660156 166.980469 385.554688 168.238281 C 385.082031 173.257812 384.46875 178.257812 383.792969 183.253906 C 383.449219 185.75 383.089844 188.242188 382.683594 190.734375 C 382.25 193.226562 381.898438 195.695312 381.148438 198.199219 C 381.101562 198.355469 381.027344 198.527344 380.949219 198.695312 C 380.878906 198.84375 380.703125 199.183594 380.34375 199.265625 C 379.945312 199.363281 379.652344 199.375 379.320312 199.414062 C 378.679688 199.46875 378.050781 199.503906 377.414062 199.53125 C 376.152344 199.589844 374.890625 199.625 373.632812 199.65625 L 366.074219 199.765625 C 356 199.78125 345.933594 199.671875 335.863281 199.554688 L 320.761719 199.339844 L 316.109375 199.234375 L 316.402344 208.253906 L 318.578125 208.253906 L 318.96875 205.953125 C 319.113281 205.09375 319.929688 204.511719 320.796875 204.65625 C 321.65625 204.804688 322.238281 205.621094 322.09375 206.484375 L 321.792969 208.253906 L 360.527344 208.253906 L 360.914062 205.953125 C 361.0625 205.09375 361.878906 204.511719 362.742188 204.65625 C 363.605469 204.804688 364.1875 205.621094 364.042969 206.484375 L 363.742188 208.253906 L 376.5 208.253906 C 382.941406 208.253906 388.328125 203.355469 388.941406 196.941406 L 389.445312 191.628906 L 391.628906 168.75 C 392.261719 162.089844 387.5625 156.265625 381.175781 155.242188 C 383.160156 156.484375 384.804688 158.332031 385.503906 160.621094 Z M 148.992188 365.21875 C 147.917969 366.539062 146.902344 367.910156 146.003906 369.351562 C 145.988281 369.375 145.988281 369.402344 145.984375 369.433594 C 145.976562 369.496094 145.988281 369.566406 146.042969 369.613281 C 146.125 369.6875 146.253906 369.675781 146.328125 369.589844 C 146.339844 369.578125 146.351562 369.566406 146.359375 369.550781 C 147.453125 368.285156 148.539062 367.023438 149.664062 365.800781 C 150.808594 364.566406 151.953125 363.339844 153.164062 362.179688 C 154.347656 360.988281 155.585938 359.859375 156.839844 358.742188 C 158.09375 357.621094 159.382812 356.542969 160.679688 355.460938 C 160.769531 355.386719 160.792969 355.253906 160.730469 355.152344 C 160.660156 355.039062 160.511719 355 160.398438 355.070312 C 158.945312 355.960938 157.566406 356.960938 156.238281 358.027344 C 154.90625 359.09375 153.648438 360.246094 152.425781 361.429688 C 151.230469 362.648438 150.066406 363.894531 148.992188 365.21875 Z M 67.449219 363.34375 C 67.859375 363.371094 68.273438 363.375 68.683594 363.363281 C 69.925781 363.320312 71.160156 363.097656 72.347656 362.75 C 73.144531 362.515625 73.921875 362.222656 74.664062 361.859375 C 75.40625 361.492188 76.125 361.089844 76.78125 360.554688 C 76.847656 360.5 76.875 360.410156 76.84375 360.324219 C 76.800781 360.21875 76.683594 360.167969 76.578125 360.207031 L 76.570312 360.210938 C 75.078125 360.789062 73.574219 361.308594 72.054688 361.738281 C 71.292969 361.957031 70.527344 362.152344 69.757812 362.335938 C 68.984375 362.53125 68.203125 362.671875 67.414062 362.863281 L 67.40625 362.867188 C 67.308594 362.890625 67.230469 362.976562 67.222656 363.085938 C 67.222656 363.085938 67.226562 363.089844 67.226562 363.09375 C 67.222656 363.222656 67.320312 363.332031 67.449219 363.34375 Z M 90.835938 318.25 C 109.554688 318.25 127.996094 325.765625 142.761719 337.9375 C 145.3125 340.039062 147.75 342.289062 150.0625 344.65625 C 147.609375 346.871094 144.988281 350.109375 143.378906 352.171875 C 143.121094 352.679688 142.875 353.191406 142.636719 353.707031 C 142.511719 353.972656 142.382812 354.234375 142.265625 354.503906 C 141.808594 355.574219 141.378906 356.652344 141.015625 357.753906 C 140.640625 358.855469 140.335938 359.976562 140.054688 361.105469 C 139.851562 361.964844 139.683594 362.835938 139.527344 363.714844 C 139.476562 363.996094 139.425781 364.273438 139.375 364.554688 C 139.359375 364.664062 139.253906 364.738281 139.144531 364.71875 C 139.046875 364.703125 138.976562 364.621094 138.972656 364.53125 C 138.96875 364.425781 138.980469 364.320312 138.976562 364.21875 C 138.945312 363.121094 139.019531 362.023438 139.179688 360.9375 C 139.351562 359.742188 139.644531 358.570312 140.015625 357.421875 C 140.394531 356.277344 140.855469 355.160156 141.425781 354.097656 C 141.605469 353.757812 141.808594 353.433594 142.003906 353.105469 L 136.601562 347.949219 C 136.601562 347.949219 136.585938 348.058594 136.554688 348.242188 C 131.761719 344.121094 126.453125 340.628906 120.820312 337.898438 C 112.222656 333.730469 102.867188 331.355469 93.425781 331.355469 C 87.59375 331.355469 82.160156 332.265625 77.214844 333.933594 L 77.210938 333.929688 C 77.210938 333.929688 74.722656 334.441406 71.953125 335.695312 L 63.570312 329.523438 L 64.472656 324.011719 C 64.535156 323.984375 64.597656 323.949219 64.664062 323.917969 L 69.820312 321.785156 C 76.195312 319.503906 83.242188 318.25 90.835938 318.25" style="fill: rgb(31, 41, 22);"></path></g></g></svg>